<svg id="svg" version="1.1" xmlns="http://www.w3.org/2000/svg" xmlns:xlink="http://www.w3.org/1999/xlink" width="400" height="400" viewBox="0, 0, 400,400"><g id="svgg"><path id="path0" d="M98.278 133.855 C 98.228 133.905,95.581 133.985,92.394 134.033 C 87.099 134.112,84.212 134.468,79.200 135.660 C 77.012 136.180,74.049 137.140,73.105 137.635 C 72.723 137.836,72.228 138.000,72.004 138.000 C 70.965 138.000,62.094 142.631,58.510 145.045 C 49.536 151.088,39.200 162.115,39.200 165.646 C 39.200 169.063,42.704 181.710,44.988 186.539 C 45.545 187.715,46.000 188.898,46.000 189.168 C 46.000 190.756,47.430 189.103,48.222 186.600 C 50.160 180.470,54.690 172.792,59.198 168.000 C 60.129 167.010,61.158 165.799,61.485 165.309 C 62.011 164.522,68.500 159.723,70.607 158.563 C 71.043 158.323,72.394 157.576,73.609 156.902 C 76.106 155.517,82.493 153.232,85.200 152.754 C 86.190 152.580,87.900 152.259,89.000 152.042 C 91.541 151.541,101.200 151.529,103.700 152.024 C 112.406 153.747,115.569 154.866,122.161 158.555 C 124.485 159.855,126.202 161.098,129.254 163.687 C 132.568 166.499,132.402 166.955,132.387 155.100 C 132.372 142.593,132.991 144.033,126.200 140.693 C 124.440 139.827,122.724 138.980,122.387 138.810 C 122.050 138.641,121.197 138.375,120.491 138.220 C 119.786 138.065,119.106 137.772,118.981 137.569 C 118.855 137.366,118.253 137.200,117.643 137.200 C 117.033 137.200,116.398 137.065,116.234 136.900 C 115.849 136.516,112.479 135.657,109.400 135.159 C 106.371 134.669,98.399 133.735,98.278 133.855 M137.808 150.500 C 137.462 153.415,137.733 253.466,138.088 253.821 C 138.436 254.170,140.200 253.057,141.470 251.686 L 142.400 250.683 142.400 223.515 C 142.400 192.943,142.203 194.800,145.453 194.800 C 147.456 194.800,150.869 194.089,153.000 193.227 C 155.098 192.379,158.655 190.570,159.129 190.112 C 159.419 189.830,159.800 189.600,159.975 189.600 C 161.471 189.600,169.149 180.135,169.820 177.464 C 169.968 176.875,170.249 176.294,170.444 176.173 C 170.640 176.052,170.800 175.459,170.800 174.856 C 170.800 174.253,170.959 173.589,171.154 173.380 C 171.349 173.171,171.629 171.989,171.776 170.754 L 172.044 168.509 170.772 168.254 C 163.019 166.704,152.910 170.551,145.915 177.715 C 144.438 179.228,143.043 180.350,142.815 180.209 C 142.541 180.040,142.400 175.186,142.400 165.958 L 142.400 151.964 141.478 151.082 C 140.210 149.869,138.429 148.400,138.226 148.400 C 138.133 148.400,137.945 149.345,137.808 150.500 M78.181 172.700 C 78.458 175.041,78.615 175.711,79.799 179.600 C 80.692 182.537,82.595 187.096,83.638 188.800 C 83.840 189.130,84.122 189.670,84.266 190.000 C 85.509 192.861,91.260 199.587,95.101 202.674 C 96.145 203.513,97.060 204.335,97.133 204.500 C 97.207 204.665,97.522 204.800,97.833 204.800 C 98.145 204.800,98.400 204.959,98.400 205.153 C 98.400 205.348,98.715 205.621,99.100 205.760 C 99.485 205.899,100.160 206.240,100.600 206.519 C 103.371 208.271,108.936 210.800,110.022 210.800 C 110.376 210.800,110.802 210.935,110.966 211.100 C 111.916 212.049,115.927 212.548,123.726 212.685 L 132.052 212.831 131.774 209.916 C 131.621 208.312,131.340 206.697,131.148 206.326 C 130.957 205.956,130.800 205.260,130.800 204.780 C 130.800 203.896,129.773 200.378,129.144 199.105 C 128.955 198.723,128.800 198.201,128.800 197.944 C 128.800 197.462,127.254 193.915,126.122 191.800 C 125.769 191.140,124.701 189.494,123.749 188.141 L 122.019 185.683 116.309 185.886 C 104.569 186.303,91.052 181.693,83.519 174.701 C 77.901 169.486,77.795 169.446,78.181 172.700 M190.400 186.232 C 183.989 188.650,181.710 195.184,184.830 202.200 C 185.770 204.314,187.608 206.006,193.467 210.145 C 200.736 215.281,202.326 217.997,200.555 222.251 C 198.609 226.927,191.552 228.571,186.055 225.629 C 184.792 224.953,184.433 225.103,183.716 226.608 C 181.045 232.208,198.923 232.587,203.368 227.025 C 206.044 223.676,206.692 218.151,204.855 214.353 C 203.989 212.562,198.909 207.200,198.078 207.200 C 197.852 207.200,197.607 207.065,197.533 206.900 C 197.460 206.735,196.125 205.747,194.568 204.704 C 188.211 200.448,186.694 196.815,189.484 192.532 C 190.920 190.329,196.372 189.215,199.746 190.435 C 201.475 191.060,202.800 190.179,202.800 188.405 C 202.800 186.795,193.316 185.133,190.400 186.232 M214.400 208.600 L 214.400 230.800 224.986 230.800 C 236.826 230.800,236.612 230.855,236.324 227.882 L 236.200 226.600 227.932 226.400 C 223.385 226.290,219.515 226.050,219.332 225.867 C 218.819 225.352,218.689 192.555,219.197 191.606 C 219.592 190.867,220.125 190.810,227.510 190.708 L 235.400 190.600 235.521 188.500 L 235.642 186.400 225.021 186.400 L 214.400 186.400 214.400 208.600 M246.079 188.500 L 246.200 190.600 254.788 190.708 C 259.512 190.768,263.525 190.965,263.707 191.147 C 264.136 191.576,263.520 192.930,260.741 197.672 C 259.493 199.801,258.354 201.916,258.209 202.372 C 258.064 202.827,257.778 203.200,257.573 203.200 C 257.368 203.200,257.200 203.479,257.200 203.819 C 257.200 204.160,256.570 205.423,255.800 206.627 C 255.030 207.831,254.400 208.970,254.400 209.159 C 254.400 209.348,254.130 209.726,253.800 210.000 C 253.470 210.274,253.200 210.749,253.200 211.057 C 253.200 211.364,252.781 212.287,252.270 213.108 C 251.758 213.929,250.611 215.950,249.721 217.600 C 248.830 219.250,247.600 221.500,246.987 222.600 C 244.971 226.217,244.049 228.326,243.904 229.653 L 243.800 230.600 257.300 230.705 L 270.800 230.811 270.800 228.605 L 270.800 226.400 262.500 226.377 C 252.200 226.348,251.045 226.181,250.873 224.695 C 250.804 224.093,250.918 223.600,251.127 223.600 C 251.336 223.600,251.619 223.285,251.756 222.900 C 251.894 222.515,252.500 221.356,253.103 220.325 C 253.706 219.293,254.791 217.354,255.514 216.014 C 256.237 214.675,257.180 212.999,257.611 212.289 C 258.041 211.580,258.498 210.730,258.626 210.400 C 258.930 209.615,259.211 209.073,260.802 206.200 C 261.533 204.880,262.574 202.990,263.115 202.000 C 263.656 201.010,264.257 200.029,264.449 199.820 C 264.642 199.611,264.800 199.131,264.800 198.753 C 264.800 198.376,264.935 198.007,265.101 197.933 C 265.427 197.789,270.804 187.193,270.802 186.700 C 270.801 186.535,265.211 186.400,258.379 186.400 L 245.958 186.400 246.079 188.500 M277.200 208.600 L 277.200 230.800 279.000 230.800 L 280.800 230.800 280.806 213.700 C 280.814 192.817,280.795 192.880,284.720 200.400 C 286.713 204.219,290.040 210.547,290.757 211.883 C 290.968 212.277,291.246 212.870,291.374 213.200 C 291.502 213.530,291.933 214.340,292.331 215.000 C 293.301 216.607,296.067 221.699,298.631 226.600 L 300.725 230.600 302.762 230.721 L 304.800 230.842 304.800 208.621 L 304.800 186.400 303.000 186.400 L 301.200 186.400 301.200 202.976 C 301.200 222.527,301.123 222.801,297.585 215.875 C 296.665 214.074,295.412 211.700,294.801 210.600 C 294.191 209.500,292.885 207.070,291.901 205.200 C 289.647 200.918,284.742 191.729,282.774 188.100 C 281.852 186.401,281.851 186.400,279.526 186.400 L 277.200 186.400 277.200 208.600 M313.200 186.808 C 313.200 187.032,313.650 187.929,314.200 188.800 C 314.750 189.671,315.200 190.622,315.200 190.912 C 315.200 191.202,315.370 191.611,315.578 191.820 C 315.786 192.029,317.110 194.450,318.521 197.200 C 319.932 199.950,321.811 203.565,322.698 205.232 C 323.584 206.900,324.509 208.655,324.754 209.132 C 324.999 209.610,325.415 210.405,325.677 210.900 C 326.009 211.526,326.122 214.017,326.046 219.078 C 325.986 223.081,326.062 227.356,326.215 228.578 L 326.492 230.800 328.646 230.800 L 330.800 230.800 330.800 220.280 C 330.800 214.494,330.638 209.589,330.441 209.380 C 330.114 209.034,322.053 193.488,319.621 188.511 L 318.600 186.422 315.900 186.411 C 314.324 186.405,313.200 186.570,313.200 186.808 M337.730 186.900 C 337.528 187.175,336.857 188.480,336.240 189.800 C 335.624 191.120,334.517 193.460,333.782 195.000 C 330.981 200.865,330.640 202.557,331.803 204.806 C 332.440 206.037,333.344 206.068,333.749 204.872 C 333.874 204.503,334.134 203.930,334.326 203.600 C 334.518 203.270,334.900 202.572,335.173 202.049 C 335.447 201.525,336.671 199.185,337.894 196.849 C 340.912 191.081,342.519 187.937,342.876 187.100 C 343.249 186.224,338.367 186.034,337.730 186.900 M44.761 203.074 C 44.038 203.933,40.800 210.562,40.800 211.182 C 40.800 211.418,40.642 211.923,40.449 212.305 C 39.543 214.097,38.800 216.092,38.800 216.734 C 38.800 217.122,38.653 217.611,38.474 217.820 C 38.295 218.029,37.833 219.550,37.448 221.200 C 37.063 222.850,36.573 224.920,36.359 225.800 C 35.395 229.765,35.685 231.982,37.562 235.000 C 43.253 244.154,50.395 251.864,57.756 256.799 C 64.349 261.219,71.100 264.299,78.600 266.308 C 79.480 266.544,81.010 266.955,82.000 267.223 C 87.753 268.776,97.417 269.105,104.600 267.993 C 107.680 267.516,110.830 267.031,111.600 266.915 C 112.370 266.800,113.189 266.554,113.420 266.370 C 113.651 266.186,114.600 265.914,115.529 265.765 C 116.458 265.616,117.314 265.339,117.432 265.147 C 117.551 264.956,118.076 264.800,118.600 264.800 C 119.124 264.800,119.652 264.640,119.773 264.444 C 119.894 264.249,120.482 263.966,121.079 263.816 C 122.115 263.556,127.532 261.133,128.800 260.363 C 129.130 260.162,129.777 259.834,130.238 259.633 C 132.399 258.690,132.400 258.684,132.400 248.171 C 132.400 240.008,132.307 238.400,131.833 238.400 C 131.522 238.400,131.207 238.538,131.133 238.708 C 131.060 238.877,130.010 239.822,128.800 240.808 C 127.590 241.793,126.540 242.735,126.467 242.900 C 126.393 243.065,126.093 243.200,125.800 243.200 C 125.507 243.200,125.207 243.341,125.133 243.513 C 124.963 243.913,119.735 247.200,119.269 247.200 C 119.077 247.200,118.127 247.615,117.160 248.122 C 115.175 249.163,110.605 250.749,108.200 251.232 C 107.320 251.409,105.700 251.769,104.600 252.032 C 101.916 252.675,89.935 252.676,87.600 252.035 C 86.610 251.763,85.080 251.392,84.200 251.211 C 82.391 250.838,80.187 250.182,79.000 249.661 C 78.560 249.468,77.030 248.793,75.600 248.160 C 63.603 242.854,53.431 231.654,48.388 218.200 C 47.278 215.238,46.006 208.854,45.972 206.069 C 45.933 202.943,45.588 202.090,44.761 203.074 M223.747 206.628 C 221.198 209.331,221.583 209.600,228.000 209.600 L 233.600 209.600 233.600 207.400 L 233.600 205.200 229.347 205.200 L 225.094 205.200 223.747 206.628 " stroke="none" fill="#0f6d80" fill-rule="evenodd"></path><path id="path1" d="M0.000 200.000 L 0.000 400.000 200.000 400.000 L 400.000 400.000 400.000 200.000 L 400.000 0.000 200.000 0.000 L 0.000 0.000 0.000 200.000 M106.400 133.506 C 108.050 133.700,109.793 134.070,110.274 134.329 C 110.754 134.588,111.779 134.800,112.550 134.800 C 113.322 134.800,114.064 134.980,114.200 135.200 C 114.336 135.420,114.932 135.601,115.524 135.602 C 116.116 135.604,117.116 135.874,117.746 136.202 C 118.376 136.531,119.220 136.800,119.622 136.800 C 120.024 136.800,120.464 136.980,120.600 137.200 C 120.736 137.420,121.149 137.600,121.518 137.600 C 122.104 137.600,125.475 139.044,127.200 140.034 C 127.530 140.223,128.430 140.687,129.200 141.066 C 129.970 141.444,131.185 142.190,131.900 142.724 L 133.200 143.695 133.200 155.447 C 133.200 169.227,132.966 169.495,126.800 162.782 C 126.344 162.286,121.481 159.200,121.154 159.200 C 120.959 159.200,120.800 159.020,120.800 158.800 C 120.800 158.580,120.462 158.400,120.049 158.400 C 119.636 158.400,119.074 158.130,118.800 157.800 C 118.526 157.470,118.052 157.200,117.746 157.200 C 117.184 157.200,116.880 157.077,114.468 155.868 C 113.735 155.500,112.800 155.200,112.391 155.200 C 111.982 155.200,111.536 155.020,111.400 154.800 C 111.264 154.580,110.614 154.400,109.957 154.400 C 109.299 154.400,108.274 154.154,107.680 153.853 C 103.683 151.831,86.130 152.497,81.505 154.847 C 81.123 155.041,80.521 155.200,80.167 155.200 C 79.813 155.200,79.046 155.448,78.462 155.751 C 77.878 156.054,76.860 156.526,76.200 156.800 C 75.102 157.255,74.525 157.540,71.879 158.932 C 71.389 159.189,70.423 159.805,69.733 160.300 C 69.042 160.795,68.324 161.203,68.138 161.206 C 67.952 161.210,67.191 161.750,66.446 162.406 C 65.701 163.063,64.951 163.600,64.778 163.600 C 63.407 163.600,52.400 177.379,52.400 179.096 C 52.400 179.319,52.130 179.726,51.800 180.000 C 51.470 180.274,51.200 180.836,51.200 181.249 C 51.200 181.662,51.020 182.000,50.800 182.000 C 50.580 182.000,50.394 182.405,50.387 182.900 C 50.380 183.395,50.110 184.149,49.787 184.576 C 49.464 185.004,49.200 185.758,49.200 186.253 C 49.200 186.748,49.020 187.264,48.800 187.400 C 48.580 187.536,48.400 188.142,48.400 188.747 C 48.400 189.352,48.136 190.196,47.813 190.624 C 47.490 191.051,47.219 192.210,47.210 193.200 C 47.202 194.190,47.008 196.080,46.779 197.400 C 46.258 200.396,46.273 205.633,46.803 206.163 C 47.021 206.381,47.200 207.700,47.200 209.093 C 47.200 210.486,47.470 212.272,47.800 213.062 C 48.130 213.851,48.400 214.928,48.400 215.454 C 48.400 215.980,48.562 216.723,48.759 217.105 C 48.956 217.487,49.428 218.610,49.806 219.600 C 50.798 222.191,52.550 225.778,52.900 225.933 C 53.065 226.007,53.200 226.244,53.200 226.460 C 53.200 226.676,53.650 227.443,54.200 228.164 C 54.750 228.886,55.200 229.640,55.200 229.842 C 55.200 230.043,55.608 230.656,56.107 231.204 C 56.606 231.752,57.430 232.740,57.940 233.400 C 59.717 235.703,64.038 240.014,65.613 241.056 C 66.486 241.634,67.200 242.262,67.200 242.453 C 67.200 242.644,67.397 242.800,67.638 242.800 C 67.879 242.800,68.641 243.205,69.331 243.700 C 71.107 244.973,78.865 248.797,79.676 248.799 C 80.048 248.799,80.464 248.980,80.600 249.200 C 80.736 249.420,81.298 249.600,81.850 249.600 C 82.401 249.600,83.246 249.816,83.726 250.080 C 86.839 251.791,105.580 251.793,108.674 250.083 C 109.154 249.817,109.999 249.600,110.550 249.600 C 111.102 249.600,111.664 249.420,111.800 249.200 C 111.936 248.980,112.414 248.800,112.862 248.800 C 113.310 248.800,114.154 248.552,114.738 248.249 C 115.322 247.946,116.340 247.475,117.000 247.202 C 117.660 246.930,118.470 246.557,118.800 246.374 C 119.130 246.191,120.120 245.654,121.000 245.180 C 123.645 243.756,126.622 241.535,130.221 238.300 C 133.272 235.557,133.200 235.325,133.200 247.937 L 133.200 259.074 131.700 259.837 C 130.875 260.257,130.110 260.698,130.000 260.817 C 129.791 261.044,126.020 262.868,123.600 263.913 C 122.830 264.246,121.887 264.671,121.505 264.859 C 121.123 265.046,120.493 265.206,120.105 265.213 C 119.717 265.220,119.051 265.490,118.624 265.813 C 118.196 266.136,117.352 266.400,116.747 266.400 C 116.142 266.400,115.536 266.580,115.400 266.800 C 115.264 267.020,114.578 267.206,113.876 267.214 C 113.174 267.222,112.150 267.486,111.600 267.800 C 111.050 268.114,109.756 268.378,108.724 268.386 C 107.692 268.394,106.736 268.580,106.600 268.800 C 106.446 269.049,102.604 269.200,96.400 269.200 C 90.196 269.200,86.354 269.049,86.200 268.800 C 86.064 268.580,85.108 268.394,84.076 268.386 C 83.044 268.378,81.750 268.114,81.200 267.800 C 80.650 267.486,79.536 267.222,78.724 267.214 C 77.912 267.206,77.136 267.020,77.000 266.800 C 76.864 266.580,76.348 266.400,75.853 266.400 C 75.358 266.400,74.604 266.136,74.176 265.813 C 73.749 265.490,73.006 265.220,72.524 265.213 C 72.042 265.206,71.536 265.020,71.400 264.800 C 71.264 264.580,70.898 264.400,70.587 264.400 C 70.025 264.400,65.948 262.677,64.800 261.954 C 64.470 261.747,63.885 261.471,63.500 261.342 C 63.115 261.212,62.800 260.948,62.800 260.753 C 62.800 260.559,62.462 260.400,62.049 260.400 C 61.636 260.400,61.074 260.130,60.800 259.800 C 60.526 259.470,60.124 259.200,59.907 259.200 C 58.357 259.200,47.460 249.705,43.612 245.000 C 41.706 242.670,37.750 236.981,36.980 235.461 C 35.515 232.572,35.410 232.400,35.105 232.400 C 34.937 232.400,34.800 232.135,34.800 231.811 C 34.800 231.487,34.328 230.182,33.752 228.911 C 31.848 224.713,31.600 224.085,31.600 223.463 C 31.600 223.124,31.420 222.736,31.200 222.600 C 30.980 222.464,30.800 221.859,30.800 221.256 C 30.800 220.653,30.634 219.989,30.431 219.780 C 29.748 219.078,28.806 213.656,27.997 205.773 C 27.366 199.631,28.790 186.208,30.389 183.221 C 30.615 182.798,30.800 182.001,30.800 181.450 C 30.800 180.898,30.980 180.336,31.200 180.200 C 31.420 180.064,31.600 179.548,31.600 179.053 C 31.600 178.558,31.864 177.804,32.187 177.376 C 32.510 176.949,32.780 176.302,32.787 175.937 C 32.798 175.373,33.288 174.238,35.177 170.400 C 36.052 168.621,37.751 165.719,38.240 165.169 C 38.548 164.821,38.800 164.306,38.800 164.024 C 38.800 162.218,49.270 150.748,54.200 147.154 C 55.520 146.192,56.690 145.307,56.800 145.188 C 57.381 144.558,63.709 140.800,64.190 140.800 C 64.499 140.800,64.861 140.625,64.993 140.411 C 65.126 140.197,65.901 139.727,66.717 139.367 C 69.066 138.332,70.522 137.714,71.600 137.298 C 72.150 137.085,73.281 136.616,74.114 136.255 C 74.946 135.895,76.060 135.600,76.590 135.600 C 77.120 135.600,77.664 135.420,77.800 135.200 C 77.936 134.980,78.555 134.800,79.175 134.800 C 79.795 134.800,80.949 134.530,81.738 134.200 C 82.607 133.837,84.434 133.600,86.364 133.600 C 88.220 133.600,89.665 133.419,89.820 133.167 C 90.122 132.680,101.303 132.909,106.400 133.506 M140.754 149.100 L 143.174 151.000 143.187 164.961 L 143.200 178.922 145.700 176.480 C 148.757 173.495,150.493 172.244,154.400 170.213 C 156.912 168.908,157.180 168.800,157.915 168.800 C 158.314 168.800,158.852 168.588,159.110 168.330 C 160.186 167.254,169.082 166.488,171.400 167.271 C 172.883 167.772,172.995 167.914,172.926 169.206 C 172.795 171.696,172.152 174.808,171.670 175.290 C 171.412 175.548,171.200 176.074,171.200 176.459 C 171.200 176.843,170.727 178.022,170.149 179.079 C 169.570 180.135,168.837 181.495,168.519 182.100 C 168.201 182.705,167.775 183.200,167.571 183.200 C 167.367 183.200,167.200 183.393,167.200 183.629 C 167.200 184.896,158.491 192.400,157.021 192.400 C 156.680 192.400,156.400 192.580,156.400 192.800 C 156.400 193.020,156.074 193.200,155.676 193.200 C 155.279 193.200,154.604 193.464,154.176 193.787 C 153.749 194.110,153.006 194.380,152.524 194.387 C 152.042 194.394,151.536 194.580,151.400 194.800 C 151.264 195.020,150.351 195.200,149.371 195.200 C 148.391 195.200,147.277 195.370,146.895 195.578 C 146.513 195.786,145.525 196.064,144.700 196.196 L 143.200 196.436 143.200 223.966 L 143.200 251.496 141.534 252.848 C 140.618 253.592,139.641 254.425,139.363 254.700 C 139.085 254.975,138.394 255.200,137.829 255.200 L 136.800 255.200 136.800 201.467 C 136.800 171.913,136.920 147.613,137.067 147.467 C 137.623 146.910,138.409 147.258,140.754 149.100 M95.000 168.012 C 95.880 168.266,97.187 168.568,97.904 168.681 C 98.621 168.795,99.306 169.049,99.427 169.244 C 99.548 169.440,99.924 169.600,100.263 169.600 C 100.898 169.600,102.197 170.124,106.000 171.916 C 107.929 172.825,109.179 173.612,113.596 176.703 C 117.495 179.430,125.157 187.989,126.933 191.600 C 127.312 192.370,127.783 193.270,127.979 193.600 C 129.242 195.726,130.427 199.015,131.160 202.431 C 131.329 203.218,131.609 204.091,131.782 204.371 C 131.955 204.651,132.255 205.987,132.448 207.340 C 132.641 208.693,132.904 210.520,133.033 211.400 C 133.234 212.777,133.136 213.082,132.333 213.591 C 131.093 214.376,122.235 214.653,119.200 214.002 C 117.990 213.742,116.190 213.438,115.200 213.326 C 114.210 213.214,113.229 212.960,113.020 212.761 C 112.811 212.563,112.232 212.400,111.734 212.400 C 111.235 212.400,110.146 212.105,109.314 211.745 C 108.481 211.384,107.440 210.950,107.000 210.779 C 105.862 210.339,101.151 208.055,100.200 207.482 C 94.921 204.303,88.427 198.277,86.179 194.472 C 85.766 193.772,85.327 193.200,85.205 193.200 C 85.082 193.200,84.628 192.525,84.195 191.700 C 83.762 190.875,83.308 190.110,83.187 190.000 C 83.065 189.890,82.457 188.720,81.836 187.400 C 81.214 186.080,80.457 184.522,80.153 183.938 C 79.849 183.354,79.600 182.510,79.600 182.062 C 79.600 181.614,79.420 181.136,79.200 181.000 C 78.980 180.864,78.800 180.302,78.800 179.750 C 78.800 179.199,78.585 178.354,78.323 177.874 C 77.756 176.836,77.211 173.947,76.934 170.520 L 76.734 168.040 78.067 167.630 C 79.789 167.099,92.863 167.395,95.000 168.012 M199.800 185.405 C 203.588 185.995,204.502 187.101,203.395 189.751 L 202.789 191.200 197.827 191.158 C 191.086 191.102,189.200 192.282,189.200 196.556 C 189.200 198.306,190.820 201.542,191.717 201.585 C 191.891 201.593,192.251 201.782,192.517 202.004 C 192.783 202.227,193.630 202.944,194.400 203.598 C 195.170 204.252,195.956 204.790,196.146 204.794 C 197.708 204.822,204.295 211.046,205.492 213.623 C 207.322 217.565,207.458 218.851,206.481 223.000 C 204.587 231.046,194.529 234.669,185.200 230.664 C 182.642 229.566,181.771 226.255,183.604 224.596 C 184.437 223.842,184.584 223.868,187.295 225.247 C 187.677 225.441,189.866 225.600,192.161 225.600 L 196.333 225.600 198.044 224.004 C 199.852 222.319,200.745 216.982,199.300 216.500 C 199.025 216.408,198.800 216.175,198.800 215.982 C 198.800 215.422,195.664 212.560,194.166 211.754 C 193.415 211.349,192.800 210.879,192.800 210.709 C 192.800 210.539,192.617 210.400,192.394 210.400 C 190.659 210.400,183.600 203.515,183.600 201.823 C 183.600 201.506,183.420 201.136,183.200 201.000 C 182.975 200.861,182.800 198.937,182.800 196.600 C 182.800 194.263,182.975 192.339,183.200 192.200 C 183.420 192.064,183.600 191.623,183.600 191.220 C 183.600 190.133,187.826 186.015,189.231 185.734 C 189.883 185.603,190.524 185.323,190.655 185.111 C 190.893 184.726,196.630 184.910,199.800 185.405 M236.320 188.335 C 236.498 192.104,236.735 192.000,227.951 192.000 L 220.400 192.000 220.400 208.600 L 220.400 225.200 228.351 225.200 C 237.529 225.200,237.305 225.112,237.121 228.666 L 237.000 231.000 225.200 231.000 L 213.400 231.000 213.296 208.800 C 213.239 196.590,213.279 186.372,213.386 186.094 C 213.537 185.698,216.058 185.611,224.890 185.694 L 236.200 185.800 236.320 188.335 M271.200 187.400 C 271.200 188.390,271.020 189.200,270.800 189.200 C 270.580 189.200,270.400 189.455,270.400 189.768 C 270.400 190.435,269.135 192.940,268.700 193.133 C 268.535 193.207,268.400 193.590,268.400 193.984 C 268.400 194.379,268.130 194.926,267.800 195.200 C 267.470 195.474,267.200 196.036,267.200 196.449 C 267.200 196.862,267.041 197.200,266.847 197.200 C 266.652 197.200,266.388 197.515,266.258 197.900 C 266.129 198.285,265.862 198.870,265.664 199.200 C 265.109 200.129,263.738 202.741,262.306 205.600 C 261.590 207.030,260.913 208.290,260.802 208.400 C 260.691 208.510,260.242 209.320,259.804 210.200 C 259.366 211.080,258.916 211.890,258.804 212.000 C 258.692 212.110,258.131 213.100,257.557 214.200 C 255.557 218.035,254.998 219.001,254.700 219.133 C 254.535 219.207,254.400 219.590,254.400 219.984 C 254.400 220.379,254.130 220.926,253.800 221.200 C 253.470 221.474,253.200 221.873,253.200 222.087 C 253.200 222.301,252.844 222.976,252.409 223.587 L 251.618 224.698 253.109 224.945 C 253.929 225.080,258.313 225.193,262.851 225.196 C 272.364 225.201,272.106 225.102,271.921 228.666 L 271.800 231.000 257.300 231.105 L 242.800 231.210 242.800 230.000 C 242.800 229.334,242.953 228.477,243.140 228.095 C 244.389 225.539,245.910 222.586,247.310 220.000 C 248.203 218.350,249.185 216.509,249.492 215.908 C 249.799 215.307,250.219 214.712,250.425 214.584 C 250.631 214.457,250.800 214.003,250.800 213.576 C 250.800 213.149,250.937 212.800,251.105 212.800 C 251.273 212.800,251.588 212.448,251.805 212.018 C 253.570 208.523,255.031 205.767,255.206 205.600 C 255.322 205.490,255.634 204.950,255.901 204.400 C 256.168 203.850,257.018 202.320,257.791 201.000 C 258.563 199.680,259.601 197.790,260.098 196.800 C 260.594 195.810,261.135 194.940,261.300 194.867 C 261.465 194.793,261.600 194.500,261.600 194.216 C 261.600 193.931,261.868 193.476,262.196 193.204 C 263.415 192.192,262.158 192.000,254.308 192.000 C 244.882 192.000,244.800 191.971,244.800 188.618 C 244.800 185.466,244.193 185.600,258.480 185.600 L 271.200 185.600 271.200 187.400 M283.255 187.000 C 283.649 187.660,284.338 188.954,284.785 189.876 C 285.232 190.797,285.778 191.663,285.999 191.799 C 286.220 191.936,286.400 192.382,286.400 192.790 C 286.400 193.199,286.535 193.593,286.700 193.667 C 286.865 193.740,287.630 195.023,288.400 196.517 C 290.891 201.353,291.516 202.476,291.962 202.922 C 292.203 203.163,292.400 203.669,292.400 204.047 C 292.400 204.424,292.535 204.793,292.700 204.867 C 293.008 205.003,293.765 206.389,297.398 213.459 L 299.483 217.518 299.742 213.297 C 299.884 210.975,300.000 204.010,300.000 197.818 C 300.000 185.060,299.857 185.600,303.231 185.600 C 306.638 185.600,306.420 183.948,306.303 208.845 L 306.200 231.000 303.037 231.000 L 299.874 231.000 298.135 227.800 C 297.179 226.040,295.947 223.665,295.397 222.523 C 294.847 221.380,294.218 220.335,293.999 220.199 C 293.779 220.064,293.600 219.618,293.600 219.210 C 293.600 218.801,293.453 218.407,293.273 218.333 C 293.093 218.260,292.355 217.030,291.633 215.600 C 289.409 211.194,288.494 209.534,288.038 209.078 C 287.797 208.837,287.600 208.331,287.600 207.953 C 287.600 207.576,287.465 207.207,287.300 207.133 C 287.135 207.060,286.483 206.010,285.852 204.800 C 285.220 203.590,284.187 201.619,283.556 200.420 L 282.409 198.240 282.305 214.620 L 282.200 231.000 279.000 231.000 L 275.800 231.000 275.697 208.845 C 275.620 192.454,275.714 186.544,276.059 186.129 C 277.042 184.945,282.415 185.595,283.255 187.000 M319.623 186.500 C 320.036 186.995,320.379 187.700,320.387 188.067 C 320.394 188.433,320.535 188.793,320.700 188.867 C 320.865 188.940,322.187 191.340,323.637 194.200 C 325.088 197.060,327.383 201.552,328.737 204.182 L 331.200 208.965 331.200 220.100 L 331.200 231.235 328.306 231.118 L 325.411 231.000 325.114 229.400 C 324.950 228.520,324.849 224.170,324.889 219.734 C 324.962 211.684,324.696 209.898,323.200 208.400 C 322.755 207.954,321.600 205.500,321.600 205.001 C 321.600 204.707,321.465 204.407,321.299 204.333 C 321.043 204.220,319.402 201.119,315.511 193.400 C 315.068 192.520,314.553 191.530,314.369 191.200 C 312.893 188.567,311.969 186.373,312.187 186.021 C 312.744 185.120,318.796 185.510,319.623 186.500 M344.241 186.163 C 344.360 186.472,344.026 187.417,343.499 188.263 C 342.973 189.108,341.956 191.013,341.240 192.496 C 340.523 193.978,339.772 195.294,339.569 195.419 C 339.366 195.545,339.200 195.997,339.200 196.424 C 339.200 196.851,339.020 197.200,338.800 197.200 C 338.580 197.200,338.400 197.549,338.400 197.976 C 338.400 198.403,338.220 198.864,337.999 199.001 C 337.778 199.137,337.226 200.003,336.770 200.924 C 332.777 209.011,330.708 209.460,330.645 202.255 C 330.618 199.127,330.465 199.570,334.242 191.800 C 334.991 190.260,335.603 188.875,335.602 188.723 C 335.601 188.570,335.978 187.805,336.440 187.023 L 337.279 185.600 340.652 185.600 C 343.182 185.600,344.079 185.741,344.241 186.163 M234.371 204.565 C 234.653 204.905,234.792 206.141,234.720 207.665 L 234.600 210.200 228.357 210.310 C 223.675 210.392,222.009 210.292,221.693 209.910 C 220.465 208.426,223.113 204.800,225.424 204.800 C 226.155 204.800,226.864 204.620,227.000 204.400 C 227.400 203.752,233.816 203.896,234.371 204.565 " stroke="none" fill="#fbfbfb" fill-rule="evenodd"></path><path id="path2" d="M93.100 133.882 C 93.595 133.978,94.405 133.978,94.900 133.882 C 95.395 133.787,94.990 133.709,94.000 133.709 C 93.010 133.709,92.605 133.787,93.100 133.882 M99.300 133.876 C 99.685 133.976,100.315 133.976,100.700 133.876 C 101.085 133.775,100.770 133.693,100.000 133.693 C 99.230 133.693,98.915 133.775,99.300 133.876 M103.100 134.282 C 103.595 134.378,104.405 134.378,104.900 134.282 C 105.395 134.187,104.990 134.109,104.000 134.109 C 103.010 134.109,102.605 134.187,103.100 134.282 M131.900 143.999 C 132.604 144.789,132.625 165.600,131.922 165.600 C 131.659 165.600,130.894 165.105,130.222 164.500 L 129.000 163.400 130.175 164.700 C 130.821 165.415,131.676 166.000,132.075 166.000 C 133.174 166.000,133.198 144.799,132.100 143.968 C 131.504 143.518,131.475 143.522,131.900 143.999 M137.394 201.400 C 137.394 229.120,137.442 240.401,137.500 226.469 C 137.558 212.537,137.558 189.857,137.500 176.069 C 137.442 162.281,137.394 173.680,137.394 201.400 M93.300 151.897 C 95.005 151.972,97.795 151.972,99.500 151.897 C 101.205 151.822,99.810 151.761,96.400 151.761 C 92.990 151.761,91.595 151.822,93.300 151.897 M103.633 152.144 C 103.725 152.223,104.340 152.408,105.000 152.556 C 105.876 152.752,106.038 152.715,105.600 152.418 C 105.060 152.053,103.232 151.798,103.633 152.144 M142.592 166.167 C 142.599 178.238,142.681 180.156,143.200 180.297 C 143.639 180.417,143.667 180.367,143.305 180.110 C 142.933 179.846,142.783 176.360,142.697 165.980 L 142.584 152.200 142.592 166.167 M122.800 158.946 C 122.800 159.056,123.340 159.530,124.000 160.000 C 124.660 160.470,125.200 160.764,125.200 160.654 C 125.200 160.544,124.660 160.070,124.000 159.600 C 123.340 159.130,122.800 158.836,122.800 158.946 M125.600 160.946 C 125.600 161.056,126.140 161.530,126.800 162.000 C 127.460 162.470,128.000 162.764,128.000 162.654 C 128.000 162.544,127.460 162.070,126.800 161.600 C 126.140 161.130,125.600 160.836,125.600 160.946 M38.734 165.407 C 38.385 166.009,35.913 170.522,35.561 171.200 C 34.598 173.054,33.200 176.426,33.200 176.895 C 33.200 177.195,33.057 177.611,32.882 177.820 C 32.413 178.381,30.654 184.419,29.975 187.800 C 28.228 196.507,28.271 207.138,30.088 215.200 C 30.510 217.070,30.952 219.187,31.071 219.904 C 31.191 220.621,31.449 221.306,31.644 221.427 C 31.840 221.548,32.000 221.990,32.000 222.410 C 32.000 223.193,32.611 224.742,34.259 228.137 C 34.777 229.202,35.213 230.372,35.228 230.737 C 35.282 231.998,35.942 229.887,35.972 228.360 C 35.987 227.568,36.157 226.398,36.348 225.760 C 36.540 225.122,37.020 223.160,37.415 221.400 C 37.810 219.640,38.284 218.029,38.467 217.820 C 38.650 217.611,38.800 217.122,38.800 216.734 C 38.800 216.092,39.543 214.097,40.449 212.305 C 40.642 211.923,40.800 211.426,40.800 211.200 C 40.800 210.505,44.397 203.300,44.990 202.809 C 45.296 202.555,45.542 202.044,45.536 201.673 C 45.504 199.488,46.850 190.490,47.324 189.723 C 47.506 189.428,47.327 189.346,46.801 189.484 C 46.310 189.612,46.000 189.496,46.000 189.185 C 46.000 188.906,45.545 187.715,44.988 186.539 C 43.166 182.687,40.410 173.466,39.509 168.207 C 39.208 166.451,38.859 165.191,38.734 165.407 M77.880 168.808 C 77.549 169.280,77.407 170.070,77.537 170.708 C 77.692 171.466,77.806 171.586,77.909 171.100 C 78.178 169.838,78.509 170.050,83.519 174.701 C 91.038 181.680,104.571 186.303,116.263 185.887 C 119.378 185.777,122.078 185.802,122.264 185.943 C 122.449 186.084,120.910 184.535,118.843 182.499 C 116.776 180.464,114.553 178.394,113.903 177.899 C 113.253 177.405,112.218 176.595,111.603 176.100 C 110.988 175.605,110.308 175.200,110.091 175.200 C 109.875 175.200,109.495 174.956,109.247 174.657 C 105.569 170.225,80.200 165.494,77.880 168.808 M162.500 168.276 C 162.885 168.376,163.515 168.376,163.900 168.276 C 164.285 168.175,163.970 168.093,163.200 168.093 C 162.430 168.093,162.115 168.175,162.500 168.276 M214.184 186.500 C 214.078 186.775,214.041 196.900,214.100 209.000 L 214.207 231.000 214.303 208.707 L 214.400 186.414 224.700 186.300 L 235.000 186.186 224.687 186.093 C 216.737 186.021,214.331 186.115,214.184 186.500 M252.300 186.299 C 255.655 186.366,261.145 186.366,264.500 186.299 C 267.855 186.232,265.110 186.178,258.400 186.178 C 251.690 186.178,248.945 186.232,252.300 186.299 M276.984 186.500 C 276.878 186.775,276.841 196.900,276.900 209.000 L 277.007 231.000 277.103 208.720 L 277.200 186.440 279.500 186.296 L 281.800 186.151 279.487 186.076 C 277.946 186.025,277.111 186.167,276.984 186.500 M303.194 186.284 L 304.793 186.446 304.902 208.623 L 305.010 230.800 305.005 208.500 L 305.000 186.200 303.297 186.161 L 301.594 186.122 303.194 186.284 M313.061 186.300 C 312.959 186.465,313.803 186.548,314.938 186.484 C 318.347 186.294,318.763 186.112,315.924 186.054 C 314.452 186.025,313.164 186.135,313.061 186.300 M339.507 186.290 C 340.226 186.379,341.306 186.377,341.907 186.286 C 342.508 186.195,341.920 186.122,340.600 186.124 C 339.280 186.126,338.788 186.201,339.507 186.290 M235.701 188.600 C 235.705 189.480,235.787 189.793,235.883 189.295 C 235.979 188.798,235.975 188.078,235.875 187.695 C 235.775 187.313,235.696 187.720,235.701 188.600 M197.633 190.144 C 197.725 190.223,198.340 190.408,199.000 190.556 C 199.876 190.752,200.038 190.715,199.600 190.418 C 199.060 190.053,197.232 189.798,197.633 190.144 M263.114 191.138 C 263.404 191.323,263.521 191.797,263.383 192.232 C 263.159 192.938,263.176 192.943,263.591 192.297 C 264.084 191.530,263.831 190.796,263.076 190.806 C 262.737 190.810,262.748 190.906,263.114 191.138 M218.983 208.400 C 218.983 217.530,219.035 221.265,219.100 216.700 C 219.164 212.135,219.164 204.665,219.100 200.100 C 219.035 195.535,218.983 199.270,218.983 208.400 M188.243 195.033 C 187.915 195.887,187.947 197.297,188.306 197.862 C 188.468 198.116,188.600 197.441,188.600 196.362 C 188.600 194.181,188.587 194.135,188.243 195.033 M143.045 195.128 C 142.933 195.308,143.373 195.377,144.021 195.282 C 144.670 195.187,145.200 195.040,145.200 194.955 C 145.200 194.650,143.243 194.807,143.045 195.128 M142.589 223.200 C 142.589 238.270,142.639 244.435,142.700 236.900 C 142.761 229.365,142.761 217.035,142.700 209.500 C 142.639 201.965,142.589 208.130,142.589 223.200 M280.984 213.600 C 280.984 223.170,281.036 227.085,281.100 222.300 C 281.163 217.515,281.163 209.685,281.100 204.900 C 281.036 200.115,280.984 204.030,280.984 213.600 M233.672 207.289 L 233.600 209.577 228.100 209.701 L 222.600 209.825 228.113 209.912 C 234.322 210.011,234.142 210.103,233.896 206.949 L 233.744 205.000 233.672 207.289 M131.693 209.200 C 131.693 209.970,131.775 210.285,131.876 209.900 C 131.976 209.515,131.976 208.885,131.876 208.500 C 131.775 208.115,131.693 208.430,131.693 209.200 M201.400 210.000 C 202.483 211.100,203.460 212.000,203.570 212.000 C 203.680 212.000,202.883 211.100,201.800 210.000 C 200.717 208.900,199.740 208.000,199.630 208.000 C 199.520 208.000,200.317 208.900,201.400 210.000 M300.884 215.300 C 300.795 219.851,300.738 219.992,299.431 218.915 C 298.724 218.332,298.734 218.374,299.496 219.199 C 300.907 220.727,301.246 219.873,301.099 215.165 L 300.969 211.000 300.884 215.300 M122.100 213.097 C 123.805 213.172,126.595 213.172,128.300 213.097 C 130.005 213.022,128.610 212.961,125.200 212.961 C 121.790 212.961,120.395 213.022,122.100 213.097 M228.200 226.387 L 236.200 226.600 236.324 227.882 C 236.392 228.586,236.247 229.576,236.002 230.082 C 235.575 230.960,235.583 230.966,236.178 230.224 C 236.916 229.302,236.998 227.158,236.320 226.480 C 235.973 226.133,233.671 226.024,228.020 226.087 L 220.200 226.174 228.200 226.387 M257.678 226.298 C 260.031 226.369,263.991 226.369,266.478 226.299 C 268.965 226.229,267.040 226.171,262.200 226.170 C 257.360 226.170,255.325 226.228,257.678 226.298 M191.300 227.087 C 191.905 227.178,192.895 227.178,193.500 227.087 C 194.105 226.995,193.610 226.920,192.400 226.920 C 191.190 226.920,190.695 226.995,191.300 227.087 M326.093 229.600 C 326.093 230.370,326.175 230.685,326.276 230.300 C 326.376 229.915,326.376 229.285,326.276 228.900 C 326.175 228.515,326.093 228.830,326.093 229.600 M191.300 231.094 C 192.345 231.176,194.055 231.176,195.100 231.094 C 196.145 231.012,195.290 230.944,193.200 230.944 C 191.110 230.944,190.255 231.012,191.300 231.094 M131.893 238.289 C 132.253 238.545,132.417 241.202,132.504 248.219 L 132.623 257.800 132.611 248.033 C 132.602 239.697,132.512 238.242,132.000 238.103 C 131.564 237.984,131.534 238.034,131.893 238.289 M89.100 252.282 C 89.595 252.378,90.405 252.378,90.900 252.282 C 91.395 252.187,90.990 252.109,90.000 252.109 C 89.010 252.109,88.605 252.187,89.100 252.282 M101.505 252.283 C 102.002 252.379,102.722 252.375,103.105 252.275 C 103.487 252.175,103.080 252.096,102.200 252.101 C 101.320 252.105,101.007 252.187,101.505 252.283 M94.100 252.694 C 95.145 252.776,96.855 252.776,97.900 252.694 C 98.945 252.612,98.090 252.544,96.000 252.544 C 93.910 252.544,93.055 252.612,94.100 252.694 " stroke="none" fill="#6cc38c" fill-rule="evenodd"></path><path id="path3" d="M93.718 133.191 C 86.794 133.561,88.047 133.820,96.708 133.810 C 101.934 133.803,103.770 133.703,102.185 133.510 C 100.873 133.350,99.440 133.159,99.000 133.085 C 98.560 133.011,96.183 133.059,93.718 133.191 M82.400 134.400 C 81.661 134.877,82.724 134.877,84.600 134.400 L 85.800 134.095 84.400 134.053 C 83.630 134.031,82.730 134.187,82.400 134.400 M108.200 134.633 C 109.740 134.966,111.553 135.409,112.228 135.619 C 112.904 135.828,113.804 135.989,114.228 135.975 C 116.300 135.907,110.721 134.485,107.200 134.183 C 105.861 134.069,106.117 134.184,108.200 134.633 M78.000 135.425 C 76.158 136.122,77.268 136.112,79.800 135.409 C 81.328 134.985,81.517 134.859,80.600 134.875 C 79.940 134.886,78.770 135.134,78.000 135.425 M118.922 137.394 C 123.350 138.911,128.800 141.507,131.194 143.242 L 132.800 144.405 132.800 155.203 C 132.800 167.254,132.742 167.465,130.175 164.764 C 128.884 163.406,123.524 159.515,121.001 158.105 C 117.836 156.336,112.251 153.991,111.274 154.021 C 110.903 154.032,111.320 154.319,112.200 154.657 C 113.080 154.996,114.160 155.414,114.600 155.585 C 116.041 156.147,122.550 159.310,122.980 159.658 C 123.211 159.844,124.480 160.793,125.800 161.766 C 127.120 162.738,128.560 163.869,129.000 164.279 C 131.304 166.425,132.700 167.237,132.953 166.579 C 133.458 165.261,133.228 144.591,132.700 143.876 C 131.404 142.123,117.923 135.935,115.600 136.028 C 115.270 136.041,116.765 136.656,118.922 137.394 M72.000 137.400 C 71.365 137.763,71.227 137.977,71.620 137.986 C 71.961 137.994,72.411 137.837,72.620 137.639 C 72.829 137.440,73.360 137.191,73.800 137.085 L 74.600 136.893 73.800 136.861 C 73.360 136.843,72.550 137.086,72.000 137.400 M65.800 140.162 C 64.480 140.877,62.748 141.818,61.951 142.254 C 60.245 143.185,53.483 147.984,51.900 149.387 C 49.759 151.284,50.836 150.799,53.280 148.765 C 56.440 146.136,61.573 142.823,65.965 140.579 C 67.854 139.614,69.130 138.833,68.800 138.843 C 68.470 138.854,67.120 139.447,65.800 140.162 M137.324 148.100 C 136.938 148.696,136.639 247.714,137.011 251.900 C 137.335 255.549,138.030 255.702,141.100 252.798 L 143.200 250.811 143.200 223.424 L 143.200 196.038 144.700 195.621 C 145.525 195.392,146.843 195.203,147.629 195.202 C 148.415 195.201,149.945 194.916,151.029 194.568 C 153.870 193.657,154.521 193.373,158.115 191.468 C 162.072 189.371,166.682 184.695,169.172 180.253 C 170.681 177.560,169.779 178.254,168.086 181.087 C 163.384 188.957,155.608 193.756,145.400 195.087 L 143.000 195.400 142.800 223.142 L 142.600 250.885 140.600 252.634 C 138.331 254.619,138.214 254.662,137.743 253.700 C 137.194 252.579,137.060 153.025,137.605 150.500 C 138.159 147.928,138.305 147.920,140.801 150.326 L 142.800 152.253 142.800 166.126 C 142.800 178.192,142.878 180.000,143.400 180.000 C 143.730 180.000,144.000 179.851,144.000 179.670 C 144.000 177.585,153.116 171.200,159.000 169.163 C 160.760 168.554,161.837 168.043,161.394 168.028 C 158.129 167.915,150.511 172.220,146.143 176.644 L 143.200 179.626 143.200 165.737 L 143.200 151.848 140.900 149.724 C 138.529 147.534,137.880 147.240,137.324 148.100 M46.650 154.416 C 42.910 158.338,40.667 161.184,39.096 164.000 C 38.543 164.990,37.600 166.664,37.000 167.721 C 36.400 168.777,35.989 169.722,36.087 169.820 C 36.185 169.918,36.521 169.504,36.833 168.899 C 39.799 163.150,43.002 158.668,47.549 153.900 C 49.176 152.195,50.414 150.800,50.302 150.800 C 50.190 150.800,48.546 152.427,46.650 154.416 M88.000 152.400 C 87.670 152.613,86.860 152.792,86.200 152.796 C 82.653 152.821,70.445 158.063,67.463 160.842 C 67.015 161.259,66.516 161.600,66.353 161.600 C 66.190 161.600,65.800 161.857,65.486 162.171 C 65.173 162.485,64.342 163.090,63.640 163.517 C 62.938 163.944,61.935 164.875,61.411 165.585 C 60.886 166.296,59.763 167.625,58.914 168.539 C 56.814 170.799,55.029 173.201,55.453 173.197 C 55.644 173.196,56.205 172.600,56.700 171.873 C 57.194 171.146,57.915 170.203,58.302 169.776 C 58.688 169.349,59.855 167.995,60.894 166.766 C 61.933 165.538,64.362 163.468,66.292 162.166 C 68.221 160.865,69.890 159.702,70.000 159.581 C 71.765 157.653,82.367 153.835,89.200 152.668 C 92.314 152.136,92.432 152.084,90.600 152.050 C 89.500 152.029,88.330 152.187,88.000 152.400 M103.800 152.788 C 106.000 153.178,108.430 153.613,109.200 153.753 C 110.558 154.000,110.552 153.991,109.000 153.456 C 106.844 152.712,102.864 151.991,101.176 152.039 C 100.419 152.060,101.600 152.397,103.800 152.788 M164.200 167.537 C 163.057 167.718,163.914 167.848,167.200 167.995 L 171.800 168.200 172.005 170.000 L 172.210 171.800 172.495 170.205 C 172.689 169.120,172.620 168.448,172.278 168.107 C 171.698 167.527,166.561 167.165,164.200 167.537 M82.082 167.896 C 83.558 167.973,86.078 167.973,87.682 167.897 C 89.287 167.821,88.080 167.758,85.000 167.758 C 81.920 167.757,80.607 167.819,82.082 167.896 M77.176 168.900 C 76.884 169.545,76.934 170.481,77.351 172.200 C 77.767 173.913,77.943 174.256,77.967 173.397 C 77.985 172.736,77.837 171.627,77.638 170.932 C 77.370 170.000,77.429 169.452,77.861 168.835 C 78.212 168.333,78.273 168.000,78.014 168.000 C 77.777 168.000,77.400 168.405,77.176 168.900 M93.400 168.608 C 96.540 169.315,97.966 169.303,95.400 168.591 C 94.300 168.285,92.860 168.042,92.200 168.051 C 91.418 168.062,91.836 168.256,93.400 168.608 M98.000 169.600 C 98.330 169.813,98.870 169.988,99.200 169.988 C 99.733 169.988,99.733 169.945,99.200 169.600 C 98.870 169.387,98.330 169.212,98.000 169.212 C 97.467 169.212,97.467 169.255,98.000 169.600 M101.146 170.616 C 101.886 170.937,102.696 171.193,102.946 171.184 C 103.196 171.176,102.794 170.906,102.054 170.584 C 101.314 170.263,100.504 170.007,100.254 170.016 C 100.004 170.024,100.406 170.294,101.146 170.616 M103.600 171.399 C 103.600 171.589,106.789 173.200,107.164 173.200 C 107.516 173.200,105.882 172.199,104.700 171.690 C 104.095 171.430,103.600 171.299,103.600 171.399 M34.485 172.573 C 33.815 174.044,33.878 174.352,34.630 173.279 C 34.976 172.784,35.195 172.184,35.115 171.944 C 35.035 171.705,34.752 171.988,34.485 172.573 M171.211 174.156 C 170.910 175.411,170.514 176.530,170.332 176.642 C 170.149 176.755,170.003 177.152,170.006 177.524 C 170.011 178.106,170.066 178.117,170.396 177.600 C 171.017 176.631,172.103 172.910,171.923 172.370 C 171.832 172.097,171.512 172.901,171.211 174.156 M53.730 175.300 C 52.267 177.602,49.941 182.074,50.116 182.249 C 50.193 182.327,50.617 181.717,51.058 180.895 C 52.939 177.384,54.533 174.566,54.902 174.100 C 55.120 173.825,55.188 173.600,55.054 173.600 C 54.920 173.600,54.324 174.365,53.730 175.300 M78.032 175.481 C 78.014 175.966,78.157 176.776,78.350 177.281 C 78.542 177.787,79.007 179.190,79.384 180.400 C 83.246 192.816,92.794 203.882,104.200 209.159 C 105.740 209.872,107.313 210.623,107.695 210.827 C 108.077 211.032,108.716 211.200,109.115 211.200 C 109.514 211.200,110.037 211.397,110.278 211.638 C 110.518 211.878,111.036 212.013,111.428 211.938 C 111.820 211.862,110.894 211.375,109.370 210.855 C 107.847 210.335,105.520 209.365,104.200 208.698 C 102.880 208.031,101.396 207.286,100.903 207.043 C 100.410 206.799,100.005 206.465,100.003 206.300 C 100.001 206.135,99.818 206.000,99.597 206.000 C 98.557 206.000,91.865 200.451,89.770 197.851 C 88.907 196.780,87.865 195.520,87.456 195.051 C 85.121 192.378,81.020 184.419,79.805 180.200 C 78.537 175.799,78.065 174.544,78.032 175.481 M111.167 175.737 C 111.740 176.450,113.200 177.387,113.200 177.041 C 113.200 176.939,112.615 176.444,111.900 175.943 C 110.978 175.296,110.765 175.236,111.167 175.737 M32.466 177.597 C 32.173 178.258,32.024 179.025,32.135 179.300 C 32.246 179.575,32.351 179.431,32.368 178.980 C 32.386 178.529,32.600 177.960,32.845 177.715 C 33.090 177.470,33.224 177.073,33.144 176.832 C 33.064 176.591,32.758 176.935,32.466 177.597 M113.613 177.500 C 113.619 177.665,114.114 178.146,114.713 178.568 L 115.800 179.336 114.830 178.268 C 113.811 177.146,113.592 177.007,113.613 177.500 M116.000 179.370 C 116.000 179.565,117.424 181.091,119.164 182.762 C 125.364 188.716,128.424 194.538,131.380 206.000 C 131.692 207.210,131.959 207.763,131.974 207.228 C 131.988 206.694,131.830 205.704,131.622 205.028 C 131.414 204.353,130.950 202.720,130.591 201.400 C 129.856 198.696,129.754 198.415,128.176 194.800 C 126.063 189.959,116.000 177.207,116.000 179.370 M30.663 183.100 C 30.279 184.996,29.977 187.063,30.152 186.600 C 30.791 184.906,31.266 182.800,31.112 182.346 C 31.010 182.046,30.808 182.385,30.663 183.100 M49.213 184.087 C 48.942 184.809,48.583 185.760,48.416 186.200 C 47.465 188.705,46.731 191.578,46.919 192.053 C 47.045 192.369,47.150 192.217,47.168 191.695 C 47.186 191.197,47.365 190.477,47.567 190.095 C 48.052 189.176,49.975 183.042,49.825 182.892 C 49.760 182.827,49.485 183.365,49.213 184.087 M190.600 185.600 C 190.097 185.816,191.585 185.937,194.600 185.926 C 198.191 185.913,198.997 185.825,197.800 185.577 C 195.724 185.148,191.622 185.161,190.600 185.600 M187.768 186.754 C 183.626 189.280,181.792 195.297,183.497 200.765 C 184.364 203.544,187.530 206.898,192.200 209.985 C 198.477 214.133,200.768 217.135,200.230 220.504 C 199.578 224.581,197.476 225.980,191.916 226.040 C 188.072 226.081,188.270 226.681,192.154 226.760 C 196.463 226.848,199.389 225.017,200.592 221.477 L 201.336 219.287 200.272 217.111 C 199.003 214.518,197.355 212.926,192.800 209.894 C 185.765 205.212,183.209 201.669,183.209 196.600 C 183.209 193.048,186.077 187.256,187.869 187.187 C 188.343 187.169,189.829 186.000,189.376 186.001 C 189.169 186.002,188.446 186.341,187.768 186.754 M201.318 186.689 C 203.164 187.304,203.226 187.374,202.972 188.564 C 202.547 190.552,202.048 190.916,200.116 190.643 C 199.172 190.509,197.610 190.289,196.645 190.153 C 192.831 189.616,189.158 191.896,188.610 195.141 C 187.943 199.091,189.467 201.107,196.960 206.189 C 200.901 208.862,204.011 212.024,205.164 214.530 C 205.587 215.448,205.948 215.906,205.966 215.546 C 206.080 213.341,201.613 208.691,195.522 204.673 C 185.193 197.858,187.160 189.098,198.619 190.880 C 202.049 191.413,202.871 191.007,203.387 188.524 C 203.680 187.118,202.275 185.972,200.320 186.025 C 199.735 186.040,200.098 186.282,201.318 186.689 M213.697 208.500 L 213.800 231.000 224.800 231.097 C 236.939 231.205,236.815 231.229,237.061 228.749 C 237.354 225.794,237.440 225.825,228.315 225.600 L 220.200 225.400 220.200 208.400 L 220.200 191.400 228.100 191.292 C 235.293 191.193,235.997 191.121,235.968 190.492 C 235.949 190.074,235.857 189.998,235.735 190.300 C 235.584 190.675,233.680 190.800,228.140 190.800 C 223.809 190.800,220.427 190.971,219.974 191.214 C 219.019 191.725,218.738 224.578,219.680 225.520 C 220.021 225.861,222.436 226.000,228.000 226.000 C 236.465 226.000,236.800 226.080,236.800 228.106 C 236.800 230.885,237.173 230.800,224.979 230.800 L 213.987 230.800 214.093 208.400 C 214.152 196.080,214.064 186.000,213.897 186.000 C 213.730 186.000,213.640 196.125,213.697 208.500 M245.482 186.900 C 245.303 187.685,245.322 188.980,245.537 190.700 C 245.585 191.082,247.583 191.200,254.013 191.200 C 262.948 191.200,263.636 191.358,262.527 193.153 C 262.307 193.509,261.529 194.880,260.798 196.200 C 260.067 197.520,259.168 199.140,258.800 199.800 C 258.432 200.460,257.532 202.080,256.800 203.400 C 256.068 204.720,255.145 206.379,254.748 207.088 C 254.352 207.796,253.364 209.596,252.554 211.088 C 250.432 214.992,248.785 217.994,247.884 219.600 C 245.513 223.825,243.150 228.875,243.080 229.866 L 243.000 231.000 257.000 231.000 L 271.000 231.000 271.000 228.400 L 271.000 225.800 261.600 225.600 C 252.340 225.403,250.791 225.198,251.528 224.264 C 251.729 224.009,252.487 222.720,253.212 221.400 C 253.937 220.080,254.832 218.460,255.200 217.800 C 255.568 217.140,256.468 215.520,257.200 214.200 C 257.932 212.880,258.889 211.170,259.327 210.400 C 259.765 209.630,261.017 207.290,262.109 205.200 C 263.201 203.110,264.592 200.500,265.201 199.400 C 269.734 191.216,271.928 186.000,270.837 186.000 C 270.638 186.000,270.558 186.319,270.660 186.710 C 270.818 187.314,265.798 197.725,262.805 203.000 C 262.305 203.880,261.174 205.950,260.290 207.600 C 259.406 209.250,258.288 211.320,257.806 212.200 C 257.324 213.080,256.154 215.240,255.207 217.000 C 254.259 218.760,253.195 220.651,252.842 221.202 C 249.636 226.206,249.275 226.000,261.249 226.000 L 270.800 226.000 270.800 228.405 L 270.800 230.811 257.100 230.705 C 243.658 230.602,243.402 230.585,243.514 229.800 C 243.634 228.958,246.795 222.401,248.721 219.000 C 249.343 217.900,250.627 215.560,251.572 213.800 C 252.518 212.040,253.424 210.420,253.585 210.200 C 253.747 209.980,254.603 208.450,255.489 206.800 C 257.140 203.722,258.180 201.844,260.361 198.000 C 264.684 190.378,265.054 190.814,254.264 190.806 L 245.929 190.800 246.064 188.399 C 246.199 186.014,245.874 185.177,245.482 186.900 M276.267 186.267 C 275.749 186.784,275.957 230.197,276.480 230.720 C 276.744 230.984,277.878 231.200,279.000 231.200 C 282.169 231.200,282.000 232.176,282.000 213.920 C 282.000 204.944,282.136 197.600,282.302 197.600 C 282.469 197.600,283.012 198.455,283.510 199.500 C 284.009 200.545,285.100 202.660,285.936 204.200 C 286.773 205.740,288.507 208.980,289.792 211.400 C 295.326 221.828,297.362 225.626,299.120 228.800 L 300.339 231.000 302.706 231.117 C 304.369 231.200,305.212 231.068,305.540 230.672 C 306.149 229.939,306.012 186.337,305.400 186.133 C 305.136 186.045,305.036 193.597,305.107 208.400 L 305.213 230.800 302.890 230.800 C 300.664 230.800,300.541 230.746,299.942 229.500 C 299.599 228.785,298.870 227.390,298.324 226.400 C 297.777 225.410,296.195 222.440,294.808 219.800 C 293.421 217.160,291.972 214.460,291.586 213.800 C 290.805 212.462,287.685 206.553,284.749 200.852 C 282.710 196.894,282.121 196.000,281.551 196.000 C 281.355 196.000,281.200 203.685,281.200 213.400 L 281.200 230.800 278.993 230.800 L 276.787 230.800 276.893 208.400 C 276.952 196.080,276.895 186.000,276.767 186.000 C 276.638 186.000,276.413 186.120,276.267 186.267 M282.000 186.642 C 282.693 187.517,282.720 187.566,285.795 193.400 C 287.070 195.820,288.245 197.980,288.406 198.200 C 288.567 198.420,289.735 200.580,291.001 203.000 C 292.268 205.420,294.213 209.110,295.325 211.200 C 296.436 213.290,297.771 215.840,298.292 216.867 C 299.266 218.789,300.249 219.884,300.644 219.490 C 300.973 219.160,301.449 185.999,301.125 186.000 C 300.974 186.000,300.754 191.805,300.637 198.900 C 300.415 212.306,300.127 218.000,299.668 218.000 C 299.521 218.000,298.482 216.245,297.361 214.100 C 296.239 211.955,294.552 208.760,293.611 207.000 C 292.670 205.240,291.086 202.270,290.092 200.400 C 289.099 198.530,287.791 196.100,287.186 195.000 C 286.582 193.900,285.285 191.479,284.305 189.620 C 283.324 187.761,282.269 186.160,281.961 186.062 C 281.504 185.916,281.511 186.024,282.000 186.642 M312.400 186.338 C 312.400 186.670,314.204 190.246,320.806 203.000 C 322.628 206.520,324.431 210.020,324.812 210.777 C 325.413 211.968,325.481 213.044,325.321 218.777 C 325.219 222.420,325.285 226.660,325.468 228.200 L 325.800 231.000 328.400 231.000 L 331.000 231.000 331.106 220.352 L 331.213 209.705 328.552 204.552 C 327.088 201.719,324.347 196.385,322.461 192.700 C 320.574 189.015,318.891 186.000,318.720 186.000 C 318.549 186.000,318.971 187.035,319.656 188.300 C 320.342 189.565,322.963 194.650,325.481 199.600 C 327.998 204.550,330.225 208.771,330.429 208.980 C 330.638 209.194,330.800 214.034,330.800 220.080 L 330.800 230.800 328.400 230.800 L 326.000 230.800 326.000 221.390 L 326.000 211.981 323.354 206.890 C 321.899 204.091,319.260 199.010,317.490 195.600 C 315.721 192.190,313.949 188.786,313.553 188.036 C 313.156 187.286,312.925 186.521,313.040 186.336 C 313.154 186.151,313.057 186.000,312.824 186.000 C 312.591 186.000,312.400 186.152,312.400 186.338 M336.361 187.900 C 335.888 188.945,334.790 191.330,333.921 193.200 C 330.751 200.018,330.694 200.200,330.873 203.003 C 331.241 208.796,332.607 208.343,336.304 201.200 C 337.613 198.670,339.881 194.315,341.342 191.523 C 344.314 185.846,344.264 185.988,343.300 186.032 C 342.915 186.049,342.802 186.146,343.049 186.248 C 343.501 186.434,343.174 187.124,337.389 198.200 C 332.544 207.476,331.709 208.135,331.285 203.022 C 331.090 200.663,331.216 200.230,333.618 195.000 C 336.968 187.707,337.605 186.463,338.091 186.268 C 338.410 186.140,338.342 186.051,337.910 186.032 C 337.460 186.011,336.921 186.661,336.361 187.900 M29.400 188.800 C 29.248 189.491,29.214 190.147,29.324 190.257 C 29.434 190.367,29.648 189.891,29.800 189.200 C 29.952 188.509,29.986 187.853,29.876 187.743 C 29.766 187.633,29.552 188.109,29.400 188.800 M28.447 196.899 C 28.049 201.602,28.063 203.405,28.530 207.200 C 28.841 209.730,29.119 211.165,29.148 210.390 C 29.176 209.614,29.006 207.454,28.769 205.590 C 28.450 203.074,28.465 200.832,28.830 196.894 C 29.100 193.976,29.233 191.500,29.126 191.393 C 29.019 191.285,28.713 193.763,28.447 196.899 M46.256 194.084 C 46.121 194.588,46.031 195.810,46.056 196.800 C 46.097 198.424,46.134 198.347,46.435 196.018 C 46.778 193.371,46.693 192.454,46.256 194.084 M45.522 200.349 C 45.429 200.981,45.474 201.836,45.621 202.249 C 45.784 202.709,45.904 202.263,45.929 201.100 C 45.976 198.972,45.778 198.607,45.522 200.349 M46.090 205.400 C 46.075 206.500,46.317 208.660,46.627 210.200 L 47.191 213.000 46.941 210.400 C 46.804 208.970,46.563 206.810,46.405 205.600 L 46.118 203.400 46.090 205.400 M223.274 206.124 C 221.855 207.588,221.389 209.593,222.400 209.887 C 222.885 210.027,222.896 209.988,222.457 209.680 C 221.713 209.158,222.180 207.881,223.656 206.406 C 224.857 205.204,224.878 205.200,229.466 205.200 L 234.071 205.200 233.936 207.601 C 233.861 208.921,233.944 210.001,234.119 210.001 C 234.295 210.000,234.385 208.875,234.319 207.500 L 234.200 205.000 229.390 204.888 L 224.579 204.777 223.274 206.124 M132.043 210.657 C 131.989 213.234,132.064 213.205,125.467 213.179 C 120.783 213.161,118.731 212.996,113.600 212.225 C 112.423 212.049,112.486 212.104,114.000 212.576 C 120.056 214.462,131.933 214.482,132.652 212.608 C 132.767 212.310,132.686 211.286,132.473 210.333 L 132.086 208.600 132.043 210.657 M29.268 213.200 C 29.262 213.750,29.411 214.560,29.600 215.000 L 29.944 215.800 29.932 215.000 C 29.926 214.560,29.776 213.750,29.600 213.200 L 29.280 212.200 29.268 213.200 M47.234 213.600 C 47.246 213.930,47.411 214.560,47.600 215.000 L 47.944 215.800 47.966 215.000 C 47.978 214.560,47.813 213.930,47.600 213.600 C 47.255 213.067,47.215 213.067,47.234 213.600 M48.016 216.454 C 48.007 216.814,48.263 217.714,48.584 218.454 C 48.906 219.194,49.176 219.506,49.184 219.146 C 49.193 218.786,48.937 217.886,48.616 217.146 C 48.294 216.406,48.024 216.094,48.016 216.454 M30.024 216.800 C 30.017 217.130,30.267 218.210,30.579 219.200 C 30.891 220.190,31.156 220.640,31.167 220.200 C 31.179 219.760,30.929 218.680,30.612 217.800 C 30.295 216.920,30.030 216.470,30.024 216.800 M206.040 219.292 C 205.935 227.349,201.863 231.010,193.030 230.988 C 184.857 230.968,182.026 229.430,183.811 225.979 C 184.418 224.805,184.430 224.802,185.860 225.399 C 187.624 226.136,188.572 226.165,187.200 225.439 C 184.409 223.964,182.800 224.797,182.800 227.718 C 182.800 231.435,194.226 233.260,199.935 230.456 C 204.552 228.188,207.531 222.381,206.447 217.761 C 206.117 216.354,206.076 216.506,206.040 219.292 M50.016 221.839 C 49.951 223.625,56.469 233.087,60.923 237.671 C 65.622 242.507,75.850 249.200,78.543 249.200 C 78.878 249.200,79.264 249.380,79.400 249.600 C 79.536 249.820,80.042 249.990,80.524 249.978 C 81.082 249.964,80.674 249.666,79.400 249.156 C 76.075 247.825,71.529 245.547,69.200 244.043 C 67.219 242.764,66.156 241.969,63.757 239.969 C 59.770 236.646,53.903 229.041,51.180 223.667 C 50.549 222.420,50.025 221.597,50.016 221.839 M32.014 223.654 C 32.006 223.794,32.263 224.514,32.584 225.254 C 32.906 225.994,33.169 226.330,33.170 226.000 C 33.172 225.424,32.043 223.134,32.014 223.654 M33.323 227.100 C 33.417 227.265,33.797 228.120,34.168 229.000 C 35.432 232.000,38.165 237.200,38.477 237.200 C 38.648 237.200,38.337 236.435,37.785 235.500 C 36.724 233.702,35.792 231.814,34.428 228.700 C 33.970 227.655,33.496 226.800,33.374 226.800 C 33.252 226.800,33.230 226.935,33.323 227.100 M130.114 238.911 C 127.207 241.598,122.658 244.729,118.887 246.637 C 117.724 247.226,116.852 247.785,116.947 247.880 C 117.512 248.445,126.455 242.832,129.800 239.813 C 130.900 238.820,131.980 238.066,132.200 238.137 C 132.641 238.279,132.993 255.315,132.600 257.492 C 132.345 258.906,125.291 262.740,119.065 264.850 C 117.560 265.359,116.522 265.841,116.759 265.920 C 117.714 266.238,127.377 262.066,131.107 259.724 L 133.213 258.401 133.107 247.934 C 132.986 236.069,133.033 236.212,130.114 238.911 M38.800 237.719 C 38.800 238.040,42.322 243.030,43.682 244.636 C 47.162 248.744,50.834 252.182,56.605 256.734 C 57.915 257.768,61.718 260.015,61.881 259.852 C 61.987 259.746,61.523 259.374,60.848 259.025 C 56.007 256.521,45.328 246.618,41.413 241.000 C 39.204 237.830,38.800 237.323,38.800 237.719 M112.800 249.102 C 111.150 249.660,109.440 250.252,109.000 250.418 C 108.560 250.585,106.760 250.991,105.000 251.321 C 103.140 251.670,102.342 251.938,103.094 251.961 C 105.130 252.022,113.357 249.797,115.593 248.580 C 117.040 247.793,116.225 247.945,112.800 249.102 M82.034 250.395 C 82.902 250.903,88.709 252.077,89.533 251.912 C 89.900 251.838,88.850 251.543,87.200 251.256 C 85.550 250.969,83.887 250.569,83.505 250.367 C 82.522 249.847,81.142 249.874,82.034 250.395 M93.916 252.297 C 95.299 252.375,97.459 252.374,98.716 252.295 C 99.972 252.216,98.840 252.152,96.200 252.153 C 93.560 252.153,92.532 252.218,93.916 252.297 M64.800 261.399 C 64.800 262.003,75.439 266.295,75.869 265.864 C 75.984 265.749,75.295 265.433,74.339 265.160 C 73.383 264.888,72.429 264.515,72.220 264.333 C 72.011 264.150,71.619 264.000,71.348 264.000 C 70.949 264.000,66.265 261.995,65.100 261.325 C 64.935 261.230,64.800 261.264,64.800 261.399 M77.600 266.567 C 78.370 266.881,79.450 267.134,80.000 267.129 C 80.800 267.120,80.720 267.042,79.600 266.737 C 77.017 266.033,76.106 265.955,77.600 266.567 M113.600 266.434 C 113.050 266.625,111.520 267.055,110.200 267.389 C 108.383 267.848,108.189 267.955,109.400 267.830 C 112.323 267.529,117.447 266.024,115.400 266.068 C 114.960 266.077,114.150 266.242,113.600 266.434 M81.600 267.600 C 81.930 267.813,82.560 267.978,83.000 267.966 L 83.800 267.944 83.000 267.600 C 81.804 267.086,80.805 267.086,81.600 267.600 M87.000 268.621 C 90.274 269.339,104.159 269.215,106.200 268.450 C 107.222 268.067,107.073 268.043,105.200 268.289 C 102.442 268.652,89.346 268.646,86.400 268.280 C 84.409 268.033,84.466 268.066,87.000 268.621 " stroke="none" fill="#96c4cb" fill-rule="evenodd"></path><path id="path4" d="M89.861 133.101 C 89.759 133.267,91.143 133.350,92.937 133.286 C 98.071 133.103,98.566 132.925,94.124 132.860 C 91.882 132.827,89.963 132.936,89.861 133.101 M100.200 133.223 C 102.418 133.682,104.651 133.665,103.200 133.200 C 102.650 133.024,101.390 132.883,100.400 132.886 L 98.600 132.892 100.200 133.223 M81.800 134.222 C 80.795 134.714,80.762 134.769,81.600 134.562 C 82.150 134.427,83.410 134.179,84.400 134.011 L 86.200 133.707 84.600 133.671 C 83.720 133.652,82.460 133.900,81.800 134.222 M106.600 134.011 C 107.920 134.170,109.450 134.414,110.000 134.554 C 110.829 134.765,110.794 134.708,109.800 134.222 C 109.140 133.900,107.610 133.655,106.400 133.679 L 104.200 133.722 106.600 134.011 M113.000 135.200 C 114.101 135.673,114.492 135.673,114.200 135.200 C 114.064 134.980,113.558 134.813,113.076 134.828 C 112.231 134.855,112.229 134.869,113.000 135.200 M74.400 136.200 C 73.765 136.563,73.627 136.777,74.020 136.786 C 74.361 136.794,74.811 136.637,75.020 136.439 C 75.229 136.240,75.760 135.991,76.200 135.885 L 77.000 135.693 76.200 135.661 C 75.760 135.643,74.950 135.886,74.400 136.200 M115.800 135.957 C 116.460 136.146,117.360 136.440,117.800 136.609 C 118.404 136.842,118.494 136.802,118.165 136.444 C 117.926 136.184,117.026 135.891,116.165 135.792 C 114.763 135.632,114.725 135.650,115.800 135.957 M69.376 138.187 C 68.366 138.951,68.804 138.959,70.254 138.202 C 70.884 137.874,71.119 137.604,70.776 137.602 C 70.434 137.601,69.804 137.864,69.376 138.187 M122.346 138.216 C 124.053 138.957,124.359 138.956,123.376 138.213 C 122.949 137.890,122.240 137.627,121.800 137.628 C 121.246 137.630,121.414 137.811,122.346 138.216 M126.624 140.187 C 127.639 140.956,128.234 140.963,127.600 140.200 C 127.326 139.870,126.820 139.600,126.475 139.600 C 125.972 139.600,126.002 139.717,126.624 140.187 M62.011 141.820 C 61.247 142.359,60.742 142.800,60.888 142.800 C 61.239 142.800,64.000 141.168,64.000 140.960 C 64.000 140.600,63.325 140.892,62.011 141.820 M129.686 141.800 C 131.227 142.847,131.806 143.056,131.416 142.425 C 131.187 142.055,128.893 140.800,128.446 140.800 C 128.318 140.800,128.877 141.250,129.686 141.800 M58.512 143.934 C 57.583 144.521,56.818 145.144,56.812 145.319 C 56.805 145.495,57.610 145.081,58.600 144.400 C 59.590 143.719,60.400 143.080,60.400 142.981 C 60.400 142.738,60.435 142.721,58.512 143.934 M54.000 147.276 C 52.790 148.191,50.265 150.483,48.390 152.369 C 46.403 154.368,46.069 154.782,47.590 153.361 C 51.550 149.660,52.034 149.238,54.300 147.508 C 56.125 146.114,56.685 145.581,56.300 145.607 C 56.245 145.610,55.210 146.361,54.000 147.276 M137.067 147.467 C 136.920 147.613,136.827 148.378,136.860 149.167 C 136.916 150.510,136.930 150.524,137.085 149.400 C 137.176 148.740,137.543 147.975,137.901 147.700 C 138.461 147.270,138.467 147.200,137.943 147.200 C 137.608 147.200,137.213 147.320,137.067 147.467 M140.800 149.646 C 142.010 150.831,143.060 151.666,143.133 151.502 C 143.261 151.213,141.738 149.800,139.625 148.246 C 139.061 147.832,139.590 148.462,140.800 149.646 M94.313 152.295 C 95.476 152.376,97.276 152.376,98.313 152.293 C 99.351 152.211,98.400 152.145,96.200 152.146 C 94.000 152.147,93.151 152.214,94.313 152.295 M89.000 152.800 L 87.800 153.105 89.000 153.113 C 89.660 153.117,90.650 152.976,91.200 152.800 L 92.200 152.480 91.200 152.487 C 90.650 152.491,89.660 152.632,89.000 152.800 M101.600 152.800 C 102.150 152.976,103.230 153.117,104.000 153.114 L 105.400 153.108 103.800 152.777 C 101.663 152.335,100.196 152.350,101.600 152.800 M84.687 153.446 C 84.551 153.582,83.846 153.833,83.120 154.005 C 82.033 154.263,81.977 154.322,82.800 154.341 C 83.895 154.366,86.593 153.285,85.567 153.232 C 85.218 153.215,84.822 153.311,84.687 153.446 M107.600 153.800 C 108.150 154.114,109.140 154.366,109.800 154.359 C 110.767 154.348,110.612 154.238,109.000 153.791 C 106.492 153.094,106.367 153.095,107.600 153.800 M76.600 156.191 C 75.500 156.709,74.904 157.148,75.276 157.167 C 75.648 157.185,76.064 157.020,76.200 156.800 C 76.336 156.580,76.752 156.394,77.124 156.387 C 77.496 156.380,78.149 156.110,78.576 155.787 C 79.692 154.944,78.908 155.104,76.600 156.191 M114.176 155.813 C 114.604 156.136,115.234 156.399,115.576 156.398 C 115.919 156.396,115.684 156.126,115.054 155.798 C 113.604 155.041,113.166 155.049,114.176 155.813 M43.388 157.340 C 42.549 158.277,40.711 160.800,40.868 160.800 C 41.138 160.800,44.094 157.160,43.941 157.015 C 43.864 156.941,43.615 157.088,43.388 157.340 M72.662 158.047 C 71.816 158.493,71.209 158.942,71.312 159.045 C 71.502 159.236,74.400 157.655,74.400 157.360 C 74.400 157.134,74.371 157.145,72.662 158.047 M118.861 157.818 C 119.224 158.189,119.740 158.420,120.006 158.331 C 120.273 158.242,119.975 157.939,119.345 157.656 C 118.273 157.176,118.242 157.186,118.861 157.818 M69.800 159.636 C 69.580 159.854,69.040 160.290,68.600 160.604 C 68.160 160.918,67.980 161.179,68.200 161.185 C 68.420 161.191,69.140 160.753,69.800 160.212 C 70.460 159.671,70.820 159.231,70.600 159.234 C 70.380 159.237,70.020 159.418,69.800 159.636 M122.180 159.568 C 122.305 159.771,123.348 160.515,124.498 161.222 C 125.647 161.929,126.368 162.244,126.100 161.920 C 125.831 161.597,124.979 160.992,124.206 160.575 C 123.433 160.159,122.800 159.679,122.800 159.509 C 122.800 159.339,122.609 159.200,122.376 159.200 C 122.143 159.200,122.055 159.366,122.180 159.568 M39.584 162.423 C 39.105 163.096,38.800 163.733,38.907 163.840 C 39.014 163.947,39.477 163.396,39.937 162.617 C 40.964 160.877,40.763 160.767,39.584 162.423 M64.800 163.150 C 62.013 165.210,60.818 166.400,61.537 166.400 C 61.776 166.400,62.156 166.056,62.381 165.636 C 62.606 165.215,63.467 164.456,64.295 163.949 C 65.735 163.066,68.006 161.185,67.596 161.214 C 67.488 161.221,66.230 162.093,64.800 163.150 M129.235 165.000 C 130.591 166.210,131.903 167.194,132.150 167.187 C 132.398 167.180,132.122 166.817,131.537 166.381 C 130.952 165.944,129.782 164.964,128.937 164.203 C 128.092 163.441,127.258 162.814,127.085 162.809 C 126.912 162.804,127.879 163.790,129.235 165.000 M37.584 166.023 C 37.105 166.696,36.779 167.313,36.861 167.394 C 36.943 167.476,37.414 166.926,37.908 166.171 C 39.023 164.471,38.771 164.356,37.584 166.023 M164.000 167.159 C 163.450 167.313,164.907 167.430,167.238 167.419 C 172.252 167.396,172.941 167.724,172.585 169.955 C 172.398 171.124,172.440 171.264,172.803 170.690 C 174.603 167.840,169.250 165.693,164.000 167.159 M78.100 167.648 C 77.305 167.877,76.800 168.281,76.800 168.688 C 76.800 169.261,76.877 169.247,77.358 168.589 C 78.326 167.265,88.898 167.281,95.800 168.616 C 96.662 168.783,96.831 168.739,96.398 168.459 C 94.709 167.367,81.154 166.766,78.100 167.648 M159.376 168.230 C 158.949 168.576,158.870 168.717,159.200 168.544 C 159.530 168.370,160.520 168.109,161.400 167.964 L 163.000 167.700 161.576 167.650 C 160.794 167.623,159.804 167.883,159.376 168.230 M35.640 169.423 C 34.736 170.955,34.461 172.295,35.318 170.989 C 35.950 170.026,36.840 168.000,36.631 168.000 C 36.547 168.000,36.101 168.640,35.640 169.423 M99.791 169.792 C 101.327 170.319,102.657 170.677,102.747 170.586 C 102.953 170.380,100.937 169.600,100.198 169.600 C 99.895 169.600,99.536 169.420,99.400 169.200 C 99.264 168.980,98.668 168.808,98.076 168.817 C 97.357 168.828,97.926 169.152,99.791 169.792 M57.832 170.313 L 57.064 171.400 58.132 170.430 C 59.254 169.411,59.393 169.192,58.900 169.213 C 58.735 169.219,58.254 169.714,57.832 170.313 M154.224 170.213 C 153.225 170.968,153.595 170.963,155.054 170.202 C 155.684 169.874,155.930 169.610,155.600 169.615 C 155.270 169.621,154.651 169.890,154.224 170.213 M76.846 171.600 C 76.827 172.150,76.987 172.870,77.200 173.200 C 77.694 173.964,77.694 173.142,77.200 171.600 L 76.880 170.600 76.846 171.600 M105.400 172.046 C 109.742 174.243,114.317 177.577,118.893 181.879 L 123.400 186.116 119.000 181.758 C 116.580 179.361,114.150 177.087,113.600 176.705 C 113.050 176.323,111.790 175.432,110.800 174.726 C 108.676 173.211,104.143 170.793,103.471 170.816 C 103.212 170.825,104.080 171.378,105.400 172.046 M56.083 172.590 C 55.032 173.799,53.094 176.832,53.271 176.990 C 53.342 177.053,54.258 175.866,55.307 174.353 C 57.293 171.485,57.549 170.905,56.083 172.590 M171.905 172.900 C 171.804 173.615,171.590 174.560,171.428 175.000 C 171.139 175.789,171.144 175.789,171.767 175.024 C 172.115 174.596,172.400 173.651,172.400 172.924 C 172.400 171.233,172.141 171.220,171.905 172.900 M33.564 173.787 C 33.102 174.769,32.786 175.758,32.862 175.983 C 32.938 176.208,33.388 175.404,33.863 174.196 C 34.904 171.549,34.729 171.309,33.564 173.787 M147.338 174.900 C 144.929 177.039,142.988 179.152,143.253 179.348 C 143.334 179.408,144.895 177.959,146.722 176.128 C 150.529 172.313,150.752 171.869,147.338 174.900 M77.660 175.400 C 77.643 176.060,77.904 177.050,78.242 177.600 C 78.644 178.255,78.758 178.324,78.574 177.800 C 78.419 177.360,78.157 176.370,77.992 175.600 C 77.697 174.224,77.691 174.221,77.660 175.400 M170.086 178.286 C 169.612 179.315,169.299 180.232,169.390 180.323 C 169.480 180.414,169.948 179.651,170.429 178.629 C 170.909 177.606,171.223 176.689,171.125 176.591 C 171.027 176.494,170.559 177.256,170.086 178.286 M32.032 177.539 C 31.795 177.984,31.600 178.683,31.600 179.094 C 31.600 179.504,31.403 180.037,31.162 180.278 C 30.922 180.518,30.789 181.047,30.867 181.453 C 30.955 181.911,31.212 181.510,31.544 180.395 C 31.837 179.408,32.253 178.267,32.467 177.861 C 32.681 177.455,32.768 177.034,32.660 176.927 C 32.553 176.819,32.270 177.095,32.032 177.539 M79.646 182.224 C 79.621 182.676,79.864 183.396,80.187 183.824 C 80.510 184.251,80.780 184.411,80.787 184.180 C 80.794 183.949,80.637 183.589,80.439 183.380 C 80.240 183.171,79.991 182.640,79.885 182.200 C 79.697 181.420,79.692 181.420,79.646 182.224 M49.929 183.000 C 49.798 183.440,49.558 184.160,49.396 184.600 C 49.144 185.286,49.198 185.270,49.779 184.493 C 50.151 183.993,50.391 183.273,50.312 182.893 C 50.187 182.292,50.136 182.306,49.929 183.000 M30.002 184.461 C 29.752 185.417,29.380 186.753,29.174 187.428 C 28.968 188.104,28.814 189.274,28.832 190.028 C 28.868 191.626,28.947 191.433,29.579 188.200 C 29.837 186.880,30.234 185.202,30.461 184.470 C 30.688 183.739,30.779 183.046,30.664 182.931 C 30.549 182.816,30.251 183.505,30.002 184.461 M164.442 186.542 L 161.884 189.400 164.600 186.691 C 166.093 185.201,167.244 183.915,167.158 183.833 C 167.071 183.751,165.849 184.971,164.442 186.542 M190.664 185.100 C 190.563 185.265,192.372 185.409,194.684 185.421 C 196.996 185.432,198.553 185.309,198.144 185.149 C 197.153 184.759,190.897 184.718,190.664 185.100 M80.800 185.325 C 80.800 185.724,82.485 188.848,82.625 188.708 C 82.821 188.513,81.277 185.200,80.991 185.200 C 80.886 185.200,80.800 185.256,80.800 185.325 M188.176 186.222 C 187.412 186.834,187.413 186.838,188.200 186.476 C 188.640 186.274,189.270 186.008,189.600 185.886 C 190.118 185.693,190.115 185.659,189.576 185.632 C 189.234 185.614,188.604 185.880,188.176 186.222 M200.400 185.972 C 202.969 186.486,203.683 187.094,203.401 188.528 C 203.215 189.478,203.257 189.648,203.570 189.200 C 204.746 187.512,202.922 185.550,200.268 185.646 L 199.000 185.692 200.400 185.972 M213.473 185.861 C 213.099 186.235,213.125 230.707,213.500 230.938 C 213.665 231.040,213.752 220.971,213.693 208.562 L 213.587 186.000 224.793 186.000 L 236.000 186.000 236.000 188.592 L 236.000 191.183 228.100 191.292 L 220.200 191.400 220.200 208.400 L 220.200 225.400 228.315 225.600 C 234.940 225.763,236.500 225.910,236.809 226.400 C 237.017 226.730,237.191 226.811,237.194 226.580 C 237.212 225.365,236.152 225.200,228.320 225.200 L 220.400 225.200 220.400 208.600 L 220.400 192.000 227.951 192.000 C 236.735 192.000,236.498 192.104,236.320 188.335 L 236.200 185.800 224.973 185.694 C 218.798 185.636,213.623 185.711,213.473 185.861 M245.280 186.080 C 244.508 186.852,244.673 190.561,245.514 191.322 C 246.358 192.086,262.917 192.548,262.667 191.800 C 262.586 191.555,259.272 191.358,254.108 191.292 C 244.362 191.167,244.908 191.472,245.537 186.506 C 245.585 186.127,248.626 185.985,258.500 185.900 L 271.400 185.789 258.580 185.694 C 249.034 185.624,245.637 185.723,245.280 186.080 M276.046 186.145 C 275.275 187.074,275.620 230.874,276.400 231.132 C 276.894 231.295,276.911 231.223,276.497 230.720 C 276.103 230.242,276.016 225.333,276.097 208.155 L 276.200 186.200 279.191 186.081 C 281.662 185.982,282.271 186.082,282.691 186.657 C 282.971 187.040,283.200 187.175,283.200 186.956 C 283.200 185.591,277.081 184.897,276.046 186.145 M300.480 186.080 C 300.129 186.431,299.991 189.849,299.965 198.780 C 299.946 205.501,299.810 212.575,299.663 214.500 C 299.516 216.425,299.517 218.000,299.666 218.000 C 300.127 218.000,300.415 212.323,300.637 198.882 L 300.850 185.963 303.325 186.082 L 305.800 186.200 305.903 208.155 C 305.984 225.333,305.897 230.242,305.503 230.720 C 305.089 231.223,305.106 231.295,305.600 231.132 C 306.380 230.874,306.725 187.074,305.954 186.145 C 305.384 185.458,301.152 185.408,300.480 186.080 M312.134 186.227 C 312.002 186.572,312.118 187.067,312.392 187.327 C 312.784 187.700,312.833 187.613,312.623 186.916 C 312.364 186.057,312.456 186.028,315.878 185.898 L 319.400 185.765 315.887 185.682 C 313.016 185.615,312.331 185.714,312.134 186.227 M337.060 185.900 C 336.958 186.065,338.477 186.142,340.437 186.072 C 342.397 186.001,344.000 186.066,344.000 186.216 C 344.000 186.366,343.365 187.665,342.590 189.101 C 341.814 190.537,341.243 191.777,341.322 191.856 C 341.401 191.934,341.717 191.504,342.024 190.899 C 342.331 190.295,343.004 189.108,343.519 188.263 C 344.944 185.928,344.589 185.600,340.636 185.600 C 338.772 185.600,337.163 185.735,337.060 185.900 M124.000 187.600 C 124.470 188.260,124.944 188.800,125.054 188.800 C 125.164 188.800,124.870 188.260,124.400 187.600 C 123.930 186.940,123.456 186.400,123.346 186.400 C 123.236 186.400,123.530 186.940,124.000 187.600 M319.656 187.345 C 319.939 187.975,320.242 188.273,320.331 188.006 C 320.420 187.740,320.189 187.224,319.818 186.861 C 319.186 186.242,319.176 186.273,319.656 187.345 M336.085 187.613 C 335.818 188.040,335.601 188.617,335.602 188.895 C 335.604 189.173,335.877 188.878,336.210 188.240 C 336.903 186.911,336.811 186.450,336.085 187.613 M284.083 189.178 C 284.556 190.065,285.002 190.732,285.073 190.660 C 285.264 190.469,284.012 188.055,283.586 187.791 C 283.386 187.668,283.610 188.292,284.083 189.178 M312.800 188.072 C 312.800 188.506,314.069 190.796,314.435 191.022 C 314.647 191.152,314.436 190.571,313.967 189.730 C 313.067 188.115,312.800 187.736,312.800 188.072 M48.046 189.020 C 48.021 189.471,47.787 190.053,47.527 190.313 C 47.266 190.574,47.162 190.895,47.294 191.028 C 47.670 191.403,48.472 189.639,48.272 188.879 C 48.131 188.346,48.083 188.376,48.046 189.020 M160.200 190.235 L 159.000 191.266 160.300 190.406 C 161.015 189.933,161.600 189.468,161.600 189.373 C 161.600 189.073,161.431 189.178,160.200 190.235 M269.870 190.210 C 269.721 190.645,269.491 191.270,269.358 191.600 C 269.226 191.930,269.419 191.790,269.788 191.290 C 270.158 190.789,270.388 190.164,270.300 189.900 C 270.210 189.631,270.022 189.767,269.870 190.210 M321.200 190.096 C 321.200 190.513,322.940 193.593,323.091 193.442 C 323.173 193.361,322.851 192.598,322.377 191.747 C 321.451 190.087,321.200 189.735,321.200 190.096 M83.658 190.600 C 84.278 192.080,84.982 193.200,85.291 193.200 C 85.491 193.200,85.251 192.615,84.757 191.900 C 83.706 190.379,83.427 190.048,83.658 190.600 M194.000 190.780 C 193.361 190.971,194.155 191.080,196.200 191.080 C 198.854 191.081,199.127 191.027,197.800 190.763 C 195.884 190.383,195.313 190.386,194.000 190.780 M157.424 191.813 C 156.802 192.283,156.772 192.400,157.275 192.400 C 157.620 192.400,158.126 192.130,158.400 191.800 C 159.034 191.037,158.439 191.044,157.424 191.813 M190.431 192.431 C 189.754 193.108,189.205 193.873,189.211 194.131 C 189.216 194.389,189.512 194.131,189.868 193.558 C 190.224 192.984,190.984 192.224,191.558 191.868 C 192.131 191.512,192.389 191.216,192.131 191.211 C 191.873 191.205,191.108 191.754,190.431 192.431 M285.213 191.451 C 285.239 192.160,286.400 193.407,286.400 192.725 C 286.400 192.380,286.130 191.874,285.800 191.600 C 285.470 191.326,285.206 191.259,285.213 191.451 M333.628 192.836 C 333.173 193.779,332.809 194.741,332.821 194.975 C 332.833 195.209,333.281 194.514,333.818 193.431 C 334.355 192.348,334.719 191.385,334.625 191.292 C 334.532 191.199,334.083 191.894,333.628 192.836 M183.067 192.267 C 182.920 192.413,182.811 192.908,182.825 193.367 C 182.849 194.133,182.882 194.123,183.234 193.242 C 183.626 192.263,183.544 191.789,183.067 192.267 M314.800 192.139 C 314.800 192.493,316.089 194.808,316.390 194.994 C 316.576 195.109,316.381 194.483,315.955 193.602 C 315.298 192.241,314.800 191.610,314.800 192.139 M28.156 194.263 C 27.755 196.817,27.752 205.585,28.151 208.534 C 28.704 212.629,28.882 210.643,28.390 205.867 C 28.021 202.293,28.024 200.312,28.399 197.007 C 28.890 192.692,28.714 190.709,28.156 194.263 M46.820 193.200 C 46.780 193.750,46.533 195.824,46.271 197.810 C 46.010 199.795,45.915 201.955,46.060 202.610 C 46.320 203.779,46.324 203.775,46.300 202.400 C 46.287 201.630,46.504 199.373,46.783 197.383 C 47.062 195.394,47.201 193.414,47.092 192.983 C 46.928 192.337,46.880 192.375,46.820 193.200 M340.012 194.065 C 339.500 194.976,339.276 195.600,339.515 195.452 C 339.993 195.157,341.281 192.748,341.073 192.540 C 341.001 192.468,340.523 193.154,340.012 194.065 M127.656 193.745 C 127.939 194.375,128.242 194.673,128.331 194.406 C 128.420 194.140,128.189 193.624,127.818 193.261 C 127.186 192.642,127.176 192.673,127.656 193.745 M153.800 193.600 C 153.664 193.820,153.158 194.021,152.676 194.046 C 152.011 194.082,151.967 194.137,152.493 194.274 C 152.873 194.374,153.589 194.173,154.082 193.828 C 154.575 193.483,154.769 193.200,154.513 193.200 C 154.257 193.200,153.936 193.380,153.800 193.600 M86.284 194.600 C 87.135 196.025,88.002 197.085,90.341 199.559 C 91.779 201.079,91.710 200.944,89.941 198.780 C 88.764 197.339,87.298 195.539,86.684 194.780 C 85.688 193.549,85.644 193.529,86.284 194.600 M267.656 194.655 C 267.176 195.727,267.186 195.758,267.818 195.139 C 268.189 194.776,268.420 194.260,268.331 193.994 C 268.242 193.727,267.939 194.025,267.656 194.655 M323.200 194.096 C 323.200 194.513,324.940 197.593,325.091 197.442 C 325.173 197.361,324.851 196.598,324.377 195.747 C 323.451 194.087,323.200 193.735,323.200 194.096 M150.200 194.800 C 149.429 195.131,149.431 195.145,150.276 195.172 C 150.758 195.187,151.264 195.020,151.400 194.800 C 151.692 194.327,151.301 194.327,150.200 194.800 M144.500 195.648 C 143.785 195.854,143.200 196.110,143.200 196.216 C 143.200 196.526,146.562 195.933,146.980 195.549 C 147.466 195.103,146.214 195.153,144.500 195.648 M331.551 197.415 C 331.081 198.414,330.785 199.318,330.891 199.425 C 330.998 199.532,331.461 198.715,331.921 197.609 C 332.962 195.105,332.701 194.968,331.551 197.415 M129.216 197.276 C 129.207 197.648,129.380 198.064,129.600 198.200 C 129.820 198.336,130.021 198.842,130.046 199.324 C 130.080 199.964,130.141 200.018,130.271 199.523 C 130.369 199.151,130.176 198.341,129.841 197.723 C 129.434 196.972,129.227 196.824,129.216 197.276 M317.600 197.447 C 317.600 197.667,317.864 198.196,318.187 198.624 C 318.510 199.051,318.775 199.220,318.775 199.000 C 318.775 198.780,318.510 198.251,318.187 197.824 C 317.864 197.396,317.600 197.227,317.600 197.447 M282.000 213.920 C 282.000 226.080,281.878 230.362,281.520 230.720 C 281.147 231.093,281.149 231.200,281.533 231.200 C 281.803 231.200,282.107 230.975,282.208 230.700 C 282.524 229.832,282.614 197.600,282.300 197.600 C 282.135 197.600,282.000 204.944,282.000 213.920 M337.671 198.435 C 337.381 198.899,337.221 199.355,337.315 199.449 C 337.593 199.726,338.488 198.464,338.337 198.010 C 338.260 197.780,337.960 197.971,337.671 198.435 M325.200 198.084 C 325.200 198.573,326.895 201.238,327.085 201.048 C 327.187 200.946,326.805 200.176,326.236 199.338 C 325.666 198.500,325.200 197.936,325.200 198.084 M190.000 200.000 C 190.470 200.660,190.944 201.200,191.054 201.200 C 191.164 201.200,190.870 200.660,190.400 200.000 C 189.930 199.340,189.456 198.800,189.346 198.800 C 189.236 198.800,189.530 199.340,190.000 200.000 M282.800 198.986 C 282.800 199.088,283.282 200.033,283.871 201.086 C 284.460 202.139,285.302 203.673,285.743 204.495 C 286.183 205.317,286.610 205.924,286.691 205.842 C 286.773 205.761,286.444 204.998,285.961 204.147 C 285.479 203.296,284.650 201.745,284.121 200.700 C 283.269 199.020,282.800 198.411,282.800 198.986 M290.064 200.437 C 290.499 201.339,290.934 201.999,291.030 201.904 C 291.246 201.687,290.072 199.292,289.610 199.006 C 289.424 198.891,289.628 199.535,290.064 200.437 M182.828 199.876 C 182.813 200.358,182.980 200.864,183.200 201.000 C 183.673 201.292,183.673 200.901,183.200 199.800 C 182.869 199.029,182.855 199.031,182.828 199.876 M264.033 201.433 C 263.557 202.240,263.242 202.976,263.334 203.067 C 263.426 203.159,263.890 202.574,264.367 201.767 C 264.843 200.960,265.158 200.224,265.066 200.133 C 264.974 200.041,264.510 200.626,264.033 201.433 M336.064 201.563 C 335.628 202.465,335.424 203.109,335.610 202.994 C 336.072 202.708,337.246 200.313,337.030 200.096 C 336.934 200.001,336.499 200.661,336.064 201.563 M130.412 200.800 C 130.412 201.130,130.587 201.670,130.800 202.000 C 131.145 202.533,131.188 202.533,131.188 202.000 C 131.188 201.670,131.013 201.130,130.800 200.800 C 130.455 200.267,130.412 200.267,130.412 200.800 M330.493 202.000 C 330.493 202.770,330.575 203.085,330.676 202.700 C 330.776 202.315,330.776 201.685,330.676 201.300 C 330.575 200.915,330.493 201.230,330.493 202.000 M92.620 201.709 C 92.728 201.988,93.217 202.462,93.708 202.761 C 94.559 203.280,94.555 203.256,93.630 202.253 C 92.548 201.077,92.334 200.962,92.620 201.709 M191.743 201.909 C 191.848 202.078,192.804 202.818,193.867 203.552 L 195.800 204.888 194.400 203.648 C 192.323 201.810,192.057 201.600,191.793 201.600 C 191.661 201.600,191.639 201.739,191.743 201.909 M327.200 201.658 C 327.200 202.143,328.878 205.255,329.048 205.086 C 329.153 204.980,328.851 204.198,328.377 203.347 C 327.477 201.733,327.200 201.336,327.200 201.658 M291.656 203.345 C 291.939 203.975,292.242 204.273,292.331 204.006 C 292.420 203.740,292.189 203.224,291.818 202.861 C 291.186 202.242,291.176 202.273,291.656 203.345 M256.032 203.939 C 255.379 205.160,255.514 205.500,256.241 204.463 C 256.593 203.960,256.788 203.454,256.673 203.340 C 256.559 203.225,256.270 203.495,256.032 203.939 M131.438 204.400 C 131.573 204.950,131.821 206.210,131.989 207.200 L 132.293 209.000 132.329 207.400 C 132.348 206.520,132.100 205.260,131.778 204.600 C 131.286 203.595,131.231 203.562,131.438 204.400 M185.545 205.075 C 186.453 206.400,191.920 210.613,192.274 210.260 C 192.385 210.149,191.694 209.568,190.738 208.969 C 189.782 208.370,188.905 207.772,188.789 207.640 C 187.337 205.985,184.788 203.970,185.545 205.075 M227.009 204.385 C 226.865 204.618,228.237 204.815,230.486 204.885 L 234.200 205.000 234.319 207.500 L 234.438 210.000 228.239 210.000 C 222.757 210.000,221.993 209.919,221.632 209.300 C 221.408 208.915,221.219 208.803,221.212 209.051 C 221.181 210.211,222.381 210.420,228.454 210.311 L 234.600 210.200 234.720 207.665 C 234.792 206.141,234.653 204.905,234.371 204.565 C 233.823 203.905,227.403 203.748,227.009 204.385 M196.000 204.960 C 196.000 205.049,196.675 205.502,197.500 205.968 L 199.000 206.816 197.800 205.810 C 196.699 204.887,196.000 204.557,196.000 204.960 M222.847 206.076 C 222.161 206.778,221.614 207.633,221.632 207.976 C 221.659 208.514,221.693 208.517,221.881 208.000 C 222.000 207.670,222.651 206.815,223.328 206.100 C 224.004 205.385,224.453 204.800,224.326 204.800 C 224.199 204.800,223.534 205.374,222.847 206.076 M321.615 205.200 C 321.621 205.530,321.890 206.149,322.213 206.576 C 322.968 207.575,322.963 207.205,322.202 205.746 C 321.874 205.116,321.610 204.870,321.615 205.200 M330.844 205.200 C 330.823 205.878,331.723 207.200,332.206 207.200 C 332.381 207.200,332.250 206.885,331.914 206.500 C 331.579 206.115,331.205 205.530,331.084 205.200 C 330.888 204.667,330.861 204.667,330.844 205.200 M97.200 205.386 C 97.200 205.699,99.650 207.283,99.840 207.093 C 99.947 206.986,99.396 206.523,98.617 206.063 C 97.838 205.603,97.200 205.299,97.200 205.386 M329.200 205.696 C 329.200 206.113,330.940 209.193,331.091 209.042 C 331.173 208.961,330.851 208.198,330.377 207.347 C 329.451 205.687,329.200 205.335,329.200 205.696 M46.447 206.676 C 46.584 208.768,47.104 209.835,47.153 208.124 C 47.179 207.202,47.020 206.336,46.800 206.200 C 46.580 206.064,46.421 206.278,46.447 206.676 M293.200 206.121 C 293.200 206.261,293.586 207.056,294.058 207.888 C 294.530 208.720,295.357 210.269,295.895 211.330 C 296.432 212.392,296.955 213.178,297.056 213.077 C 297.157 212.977,296.900 212.288,296.485 211.547 C 296.071 210.806,295.233 209.300,294.624 208.200 C 293.445 206.073,293.200 205.715,293.200 206.121 M199.970 207.742 C 201.018 208.886,201.200 208.990,201.200 208.446 C 201.200 208.251,200.705 207.775,200.100 207.388 L 199.000 206.685 199.970 207.742 M100.591 207.586 C 100.855 208.012,103.269 209.264,103.460 209.073 C 103.532 209.002,102.865 208.556,101.978 208.083 C 101.092 207.610,100.468 207.386,100.591 207.586 M287.600 208.084 C 287.600 208.424,287.899 208.949,288.265 209.251 C 288.874 209.753,288.887 209.715,288.411 208.800 C 287.714 207.459,287.600 207.358,287.600 208.084 M259.657 209.657 C 259.375 210.109,259.232 210.566,259.340 210.673 C 259.447 210.781,259.744 210.478,260.000 210.000 C 260.605 208.870,260.324 208.590,259.657 209.657 M323.600 209.047 C 323.600 209.267,323.864 209.796,324.187 210.224 C 324.510 210.651,324.775 210.820,324.775 210.600 C 324.775 210.380,324.510 209.851,324.187 209.424 C 323.864 208.996,323.600 208.827,323.600 209.047 M104.624 209.787 C 105.051 210.110,105.670 210.379,106.000 210.385 C 106.330 210.390,106.084 210.126,105.454 209.798 C 103.995 209.037,103.625 209.032,104.624 209.787 M132.525 210.988 C 132.600 212.971,132.596 212.978,131.000 213.522 C 129.391 214.070,120.586 213.992,117.800 213.404 C 116.704 213.173,116.670 213.197,117.400 213.674 C 118.578 214.444,130.677 214.410,132.135 213.632 C 133.260 213.033,133.527 211.484,132.796 209.800 C 132.548 209.228,132.471 209.566,132.525 210.988 M288.800 210.072 C 288.800 210.506,290.069 212.796,290.435 213.022 C 290.647 213.152,290.436 212.571,289.967 211.730 C 289.067 210.115,288.800 209.736,288.800 210.072 M192.813 210.681 C 192.825 211.000,196.400 213.315,196.400 213.004 C 196.400 212.913,195.590 212.281,194.600 211.600 C 193.610 210.919,192.806 210.505,192.813 210.681 M204.060 211.995 C 204.546 212.652,205.015 213.118,205.104 213.030 C 205.349 212.785,203.959 210.800,203.542 210.800 C 203.341 210.800,203.574 211.338,204.060 211.995 M109.723 211.841 C 110.341 212.176,111.241 212.373,111.723 212.279 C 112.463 212.136,112.432 212.100,111.524 212.054 C 110.932 212.025,110.336 211.820,110.200 211.600 C 110.064 211.380,109.648 211.207,109.276 211.216 C 108.824 211.227,108.972 211.434,109.723 211.841 M324.936 220.715 C 324.978 226.960,325.151 230.511,325.429 230.789 C 325.734 231.094,325.752 230.378,325.492 228.309 C 325.290 226.709,325.212 222.407,325.317 218.749 C 325.422 215.091,325.365 211.867,325.190 211.584 C 325.016 211.302,324.901 215.411,324.936 220.715 M28.991 213.200 C 29.192 215.808,29.993 219.336,30.490 219.800 C 30.789 220.080,30.832 219.960,30.631 219.400 C 30.367 218.662,30.029 217.174,29.178 213.000 L 28.852 211.400 28.991 213.200 M47.408 212.800 C 48.157 215.765,48.318 216.198,48.359 215.346 C 48.382 214.876,48.120 213.886,47.778 213.146 C 47.369 212.261,47.243 212.142,47.408 212.800 M113.000 212.800 C 113.136 213.020,113.642 213.187,114.124 213.172 C 114.969 213.145,114.971 213.131,114.200 212.800 C 113.099 212.327,112.708 212.327,113.000 212.800 M257.657 213.257 C 257.375 213.709,257.232 214.166,257.340 214.273 C 257.447 214.381,257.744 214.078,258.000 213.600 C 258.605 212.470,258.324 212.190,257.657 213.257 M205.413 213.931 C 205.563 214.224,205.831 214.944,206.009 215.531 C 206.267 216.389,206.338 216.437,206.366 215.776 C 206.385 215.324,206.117 214.604,205.770 214.176 C 205.424 213.749,205.263 213.639,205.413 213.931 M297.225 213.800 C 297.225 214.020,297.490 214.549,297.813 214.976 C 298.136 215.404,298.400 215.573,298.400 215.353 C 298.400 215.133,298.136 214.604,297.813 214.176 C 297.490 213.749,297.225 213.580,297.225 213.800 M250.126 214.900 C 249.949 215.175,249.611 215.760,249.374 216.200 C 249.138 216.640,248.453 217.877,247.853 218.948 C 247.253 220.019,246.829 220.962,246.910 221.043 C 246.991 221.124,247.417 220.517,247.857 219.695 C 248.298 218.873,249.136 217.345,249.721 216.300 C 250.667 214.609,250.957 213.607,250.126 214.900 M256.050 216.206 C 254.867 218.210,254.986 218.501,256.236 216.662 C 256.805 215.824,257.187 215.054,257.085 214.952 C 256.983 214.850,256.517 215.414,256.050 216.206 M291.600 215.447 C 291.600 215.667,291.864 216.196,292.187 216.624 C 292.510 217.051,292.775 217.220,292.775 217.000 C 292.775 216.780,292.510 216.251,292.187 215.824 C 291.864 215.396,291.600 215.227,291.600 215.447 M199.787 219.654 C 199.775 222.405,199.799 222.487,200.144 220.898 C 200.365 219.885,200.370 218.692,200.157 217.952 C 199.866 216.936,199.798 217.249,199.787 219.654 M206.550 219.400 C 206.550 220.848,206.692 221.781,206.869 221.502 C 207.044 221.226,207.188 220.280,207.188 219.400 C 207.188 218.520,207.044 217.574,206.869 217.298 C 206.692 217.019,206.550 217.952,206.550 219.400 M49.214 219.054 C 49.206 219.304,49.469 220.024,49.798 220.654 C 50.126 221.284,50.390 221.530,50.383 221.200 C 50.369 220.483,49.235 218.400,49.214 219.054 M253.671 220.435 C 253.381 220.899,253.221 221.355,253.315 221.449 C 253.593 221.726,254.488 220.464,254.337 220.010 C 254.260 219.780,253.960 219.971,253.671 220.435 M30.800 221.510 C 30.800 221.973,30.980 222.464,31.200 222.600 C 31.420 222.736,31.600 223.095,31.600 223.398 C 31.600 224.164,32.384 226.150,32.601 225.933 C 32.763 225.770,31.288 221.223,30.946 220.833 C 30.866 220.742,30.800 221.046,30.800 221.510 M294.800 221.258 C 294.800 221.743,296.478 224.855,296.648 224.686 C 296.753 224.580,296.451 223.798,295.977 222.947 C 295.077 221.333,294.800 220.936,294.800 221.258 M245.623 223.050 C 245.153 223.848,244.852 224.586,244.956 224.689 C 245.059 224.793,245.520 224.140,245.980 223.239 C 247.015 221.211,246.781 221.088,245.623 223.050 M252.070 223.372 C 250.898 225.358,250.967 225.374,261.600 225.600 L 271.000 225.800 271.000 228.501 C 271.000 231.813,271.748 231.922,271.921 228.635 C 272.106 225.107,272.354 225.201,262.851 225.196 C 258.313 225.193,253.929 225.080,253.109 224.945 L 251.618 224.698 252.453 223.526 C 252.912 222.881,253.200 222.267,253.093 222.160 C 252.986 222.053,252.526 222.598,252.070 223.372 M197.645 224.273 C 196.389 225.534,196.367 225.598,197.339 225.155 C 197.917 224.892,198.665 224.254,199.004 223.738 C 199.866 222.423,199.246 222.667,197.645 224.273 M206.046 223.420 C 206.021 223.871,205.787 224.453,205.527 224.713 C 205.266 224.974,205.162 225.295,205.294 225.428 C 205.670 225.803,206.472 224.039,206.272 223.279 C 206.131 222.746,206.083 222.776,206.046 223.420 M51.225 223.800 C 51.225 224.020,51.490 224.549,51.813 224.976 C 52.136 225.404,52.400 225.573,52.400 225.353 C 52.400 225.133,52.136 224.604,51.813 224.176 C 51.490 223.749,51.225 223.580,51.225 223.800 M183.462 224.731 C 183.098 225.134,182.807 225.719,182.816 226.031 C 182.825 226.344,183.105 226.096,183.439 225.480 C 183.907 224.618,184.236 224.421,184.873 224.623 C 185.426 224.799,185.610 224.739,185.426 224.443 C 185.020 223.786,184.210 223.905,183.462 224.731 M244.032 225.939 C 243.795 226.384,243.601 226.984,243.602 227.274 C 243.604 227.563,243.877 227.278,244.210 226.640 C 244.542 226.003,244.736 225.402,244.640 225.306 C 244.543 225.210,244.270 225.495,244.032 225.939 M189.900 225.895 C 191.055 225.976,192.945 225.976,194.100 225.895 C 195.255 225.814,194.310 225.748,192.000 225.748 C 189.690 225.748,188.745 225.814,189.900 225.895 M203.878 227.406 C 203.278 228.158,201.971 229.252,200.975 229.836 C 199.979 230.420,199.241 230.974,199.334 231.068 C 199.661 231.394,203.008 229.073,204.152 227.727 C 204.786 226.981,205.229 226.296,205.137 226.204 C 205.046 226.112,204.479 226.653,203.878 227.406 M32.821 226.625 C 32.809 226.859,33.241 227.939,33.779 229.025 C 34.317 230.111,34.767 230.809,34.779 230.575 C 34.791 230.341,34.359 229.261,33.821 228.175 C 33.283 227.089,32.833 226.391,32.821 226.625 M297.600 226.647 C 297.600 226.867,297.864 227.396,298.187 227.824 C 298.510 228.251,298.775 228.420,298.775 228.200 C 298.775 227.980,298.510 227.451,298.187 227.024 C 297.864 226.596,297.600 226.427,297.600 226.647 M54.063 228.617 C 54.523 229.396,54.986 229.947,55.093 229.840 C 55.283 229.650,53.699 227.200,53.386 227.200 C 53.299 227.200,53.603 227.838,54.063 228.617 M298.809 229.100 C 298.814 229.265,299.185 229.850,299.633 230.400 L 300.448 231.400 299.814 230.100 C 299.211 228.865,298.789 228.445,298.809 229.100 M189.200 231.767 C 191.039 232.518,195.467 232.526,197.000 231.780 L 198.200 231.195 197.000 231.494 C 195.564 231.851,190.683 231.829,189.000 231.458 C 187.913 231.219,187.932 231.248,189.200 231.767 M56.844 232.700 C 57.143 233.085,58.541 234.570,59.953 236.000 L 62.519 238.600 59.860 235.651 C 58.397 234.030,57.200 232.545,57.200 232.351 C 57.200 232.158,56.998 232.000,56.751 232.000 C 56.455 232.000,56.486 232.238,56.844 232.700 M130.182 238.310 C 129.292 239.130,127.762 240.492,126.782 241.338 C 125.367 242.559,125.288 242.683,126.400 241.941 C 127.170 241.427,128.761 240.137,129.936 239.074 C 131.163 237.965,132.312 237.234,132.636 237.359 C 132.946 237.478,133.200 237.401,133.200 237.187 C 133.200 236.345,131.717 236.896,130.182 238.310 M40.000 240.200 C 40.681 241.190,41.328 242.000,41.438 242.000 C 41.548 242.000,41.081 241.190,40.400 240.200 C 39.719 239.210,39.072 238.400,38.962 238.400 C 38.852 238.400,39.319 239.210,40.000 240.200 M65.970 241.742 C 67.018 242.886,67.200 242.990,67.200 242.446 C 67.200 242.251,66.705 241.775,66.100 241.388 L 65.000 240.685 65.970 241.742 M67.633 242.930 C 67.725 243.001,68.430 243.466,69.200 243.963 L 70.600 244.866 69.400 243.835 C 68.740 243.268,68.035 242.803,67.833 242.802 C 67.632 242.801,67.542 242.858,67.633 242.930 M123.211 243.820 C 122.447 244.359,121.997 244.799,122.211 244.798 C 122.425 244.797,123.140 244.353,123.800 243.812 C 125.341 242.549,125.005 242.553,123.211 243.820 M70.800 244.991 C 70.800 245.237,74.099 246.835,74.265 246.669 C 74.385 246.548,71.296 244.800,70.962 244.800 C 70.873 244.800,70.800 244.886,70.800 244.991 M120.466 245.393 C 118.964 246.220,118.479 246.899,119.894 246.193 C 120.603 245.839,121.288 245.381,121.416 245.175 C 121.692 244.727,121.661 244.734,120.466 245.393 M47.800 249.506 C 53.006 254.538,56.800 257.633,56.800 256.847 C 56.800 256.601,56.632 256.400,56.427 256.400 C 55.879 256.400,48.877 250.423,46.892 248.260 C 45.952 247.237,45.052 246.403,44.892 246.406 C 44.731 246.409,46.040 247.804,47.800 249.506 M75.020 247.163 C 75.476 247.598,78.400 248.832,78.400 248.589 C 78.400 248.410,75.200 246.800,74.845 246.800 C 74.732 246.800,74.811 246.963,75.020 247.163 M116.800 247.177 C 116.470 247.359,115.705 247.738,115.101 248.021 C 114.496 248.303,114.065 248.599,114.144 248.677 C 114.335 248.868,118.000 247.288,118.000 247.014 C 118.000 246.718,117.514 246.784,116.800 247.177 M82.000 249.888 C 82.550 249.987,83.171 250.232,83.380 250.434 C 83.589 250.635,84.039 250.794,84.380 250.786 C 84.773 250.777,84.635 250.563,84.000 250.200 C 83.450 249.886,82.550 249.646,82.000 249.669 L 81.000 249.709 82.000 249.888 M108.400 250.200 C 107.765 250.563,107.627 250.777,108.020 250.786 C 108.361 250.794,108.811 250.635,109.020 250.434 C 109.229 250.232,109.850 249.987,110.400 249.888 L 111.400 249.709 110.400 249.669 C 109.850 249.646,108.950 249.886,108.400 250.200 M87.200 251.200 C 88.742 251.694,89.564 251.694,88.800 251.200 C 88.470 250.987,87.750 250.827,87.200 250.846 L 86.200 250.880 87.200 251.200 M103.200 251.200 C 102.442 251.690,103.670 251.690,105.200 251.200 C 106.180 250.886,106.176 250.879,105.000 250.846 C 104.340 250.827,103.530 250.987,103.200 251.200 M141.200 252.738 C 140.210 253.726,139.843 254.189,140.384 253.767 C 142.171 252.375,143.364 251.230,143.181 251.085 C 143.081 251.007,142.190 251.750,141.200 252.738 M92.900 251.897 C 94.605 251.972,97.395 251.972,99.100 251.897 C 100.805 251.822,99.410 251.761,96.000 251.761 C 92.590 251.761,91.195 251.822,92.900 251.897 M136.867 253.500 C 136.801 255.176,136.818 255.199,138.100 255.140 C 139.277 255.086,139.298 255.065,138.323 254.916 C 137.414 254.777,137.221 254.520,137.090 253.276 L 136.934 251.800 136.867 253.500 M57.200 257.386 C 57.200 257.699,59.650 259.283,59.840 259.093 C 59.947 258.986,59.396 258.523,58.617 258.063 C 57.838 257.603,57.200 257.299,57.200 257.386 M131.611 259.420 C 130.847 259.959,130.370 260.400,130.550 260.400 C 131.084 260.400,133.200 259.054,133.200 258.714 C 133.200 258.296,133.207 258.293,131.611 259.420 M64.400 261.800 C 64.674 262.130,65.180 262.400,65.525 262.400 C 66.028 262.400,65.998 262.283,65.376 261.813 C 64.361 261.044,63.766 261.037,64.400 261.800 M126.400 262.219 C 125.410 262.733,124.791 263.163,125.025 263.176 C 125.537 263.205,128.800 261.661,128.800 261.391 C 128.800 261.066,128.267 261.250,126.400 262.219 M68.800 263.800 C 69.350 264.114,69.980 264.372,70.200 264.372 C 70.420 264.372,70.150 264.114,69.600 263.800 C 69.050 263.486,68.420 263.228,68.200 263.228 C 67.980 263.228,68.250 263.486,68.800 263.800 M123.000 263.814 C 122.340 264.117,122.081 264.372,122.424 264.382 C 122.766 264.392,123.396 264.136,123.824 263.813 C 124.772 263.096,124.569 263.096,123.000 263.814 M74.176 265.770 C 74.604 266.117,75.324 266.385,75.776 266.366 C 76.437 266.338,76.389 266.267,75.531 266.009 C 74.944 265.831,74.224 265.563,73.931 265.413 C 73.639 265.263,73.749 265.424,74.176 265.770 M118.687 265.446 C 118.551 265.582,117.846 265.833,117.120 266.005 C 115.972 266.277,115.933 266.323,116.824 266.359 C 117.386 266.382,118.196 266.136,118.624 265.813 C 119.051 265.490,119.295 265.220,119.167 265.213 C 119.038 265.206,118.822 265.311,118.687 265.446 M77.000 266.800 C 77.136 267.020,77.642 267.187,78.124 267.172 C 78.969 267.145,78.971 267.131,78.200 266.800 C 77.099 266.327,76.708 266.327,77.000 266.800 M81.200 267.758 C 81.750 268.096,82.740 268.357,83.400 268.340 C 84.579 268.309,84.576 268.303,83.200 268.008 C 82.430 267.843,81.440 267.581,81.000 267.426 C 80.476 267.242,80.545 267.356,81.200 267.758 M111.442 267.491 C 111.282 267.651,110.217 267.896,109.075 268.035 L 107.000 268.287 108.800 268.330 C 109.790 268.353,111.050 268.114,111.600 267.800 C 112.150 267.486,112.405 267.222,112.167 267.214 C 111.928 267.206,111.602 267.331,111.442 267.491 M86.204 268.806 C 86.338 269.023,87.007 269.200,87.690 269.200 C 89.201 269.200,89.049 269.000,87.280 268.663 C 86.455 268.506,86.052 268.560,86.204 268.806 M104.400 268.800 L 103.000 269.095 104.676 269.147 C 105.598 269.176,106.464 269.020,106.600 268.800 C 106.872 268.360,106.491 268.360,104.400 268.800 " stroke="none" fill="#c4dce4" fill-rule="evenodd"></path></g></svg>